<svg width="62" height="62" viewBox="0 0 62 62" fill="none" xmlns="http://www.w3.org/2000/svg">
<g clip-path="url(#clip0)">
<path d="M35.245 29.4028C35.4278 29.7604 35.7916 29.967 36.1677 29.967C36.3247 29.967 36.4859 29.9308 36.6358 29.8544C36.6967 29.8234 42.779 26.7337 45.7787 25.7861C46.3223 25.6136 46.6239 25.0328 46.4514 24.4894C46.2798 23.9458 45.7033 23.6431 45.1546 23.8146C41.9947 24.8139 35.9538 27.8829 35.6976 28.013C35.1891 28.2713 34.9867 28.8935 35.245 29.4028Z" fill="white"/>
<path d="M36.1677 17.5671C36.3247 17.5671 36.4859 17.5309 36.6358 17.4545C36.6967 17.4235 42.779 14.3338 45.7787 13.3862C46.3223 13.2137 46.6239 12.6329 46.4514 12.0895C46.2798 11.5459 45.7032 11.2431 45.1546 11.4147C41.9946 12.414 35.9538 15.483 35.6976 15.6131C35.1892 15.8714 34.9866 16.4935 35.2449 17.0029C35.4278 17.3604 35.7915 17.5671 36.1677 17.5671Z" fill="white"/>
<path d="M60.9672 15.5004C60.3958 15.5004 59.9339 15.9633 59.9339 16.5337V56.8333C59.9339 58.5424 58.543 59.9333 56.8339 59.9333H32.0341V57.5557C33.5408 57.0287 37.4653 55.8001 41.3341 55.8001C50.3354 55.8001 56.4475 57.7934 56.5084 57.8139C56.8194 57.9172 57.1667 57.8657 57.4384 57.6713C57.7081 57.4771 57.8672 57.165 57.8672 56.8332V11.3671C57.8672 10.8825 57.5314 10.4629 57.0581 10.3585C57.0581 10.3585 56.248 10.1777 54.8633 9.92344C54.3042 9.82015 53.7639 10.1921 53.6605 10.7522C53.5572 11.3143 53.9281 11.8527 54.4892 11.956C55.0173 12.0531 55.4595 12.1388 55.8005 12.2071V55.46C53.459 54.8462 48.2594 53.7334 41.3339 53.7334C36.8317 53.7334 32.4092 55.212 31.0409 55.7132C29.8247 55.1759 26.1482 53.7334 21.7007 53.7334C14.5831 53.7334 8.72002 54.9072 6.20081 55.5035V12.1668C8.26435 11.6594 14.3589 10.3337 21.7007 10.3337C25.4682 10.3337 28.6994 11.5065 29.9673 12.0366V52.7001C29.9673 53.0721 30.1677 53.4162 30.4912 53.5991C30.8146 53.783 31.2135 53.7778 31.5328 53.5856C31.6351 53.5247 41.8733 47.4094 50.9603 44.3808C51.3829 44.2392 51.6672 43.8455 51.6672 43.4001V1.03378C51.6672 0.694838 51.5008 0.377575 51.2218 0.184432C50.9448 -0.00883202 50.5894 -0.0532731 50.2701 0.0656401C42.0025 3.16658 33.6368 8.37248 33.553 8.42419C33.0694 8.72692 32.9216 9.36448 33.2244 9.84812C33.5261 10.3318 34.1637 10.4795 34.6483 10.1768C34.7247 10.1282 42.0025 5.60019 49.6005 2.54465V42.6604C42.5469 45.1114 35.1824 49.1135 32.0339 50.9052V11.3671C32.0339 10.9755 31.8128 10.6179 31.4625 10.4423C31.2847 10.3545 27.0502 8.26713 21.7007 8.26713C12.3636 8.26713 5.18508 10.2873 4.88332 10.374C4.44 10.5001 4.13412 10.9062 4.13412 11.3671V56.8335C4.13412 57.1569 4.28706 57.4628 4.54438 57.6581C4.72626 57.7955 4.94532 57.8669 5.16752 57.8669C5.26258 57.8669 5.35764 57.8534 5.45064 57.8265C5.52196 57.8069 12.6674 55.8002 21.7007 55.8002C25.4785 55.8002 28.7066 56.9761 29.9673 57.5041V59.9334H5.16752C3.45842 59.9334 2.06755 58.5426 2.06755 56.8335V16.5338C2.06755 15.9634 1.60461 15.5005 1.03426 15.5005C0.463914 15.5005 0.000976562 15.9634 0.000976562 16.5338V56.8335C0.000976562 59.6823 2.31869 62.0001 5.16764 62.0001H56.8339C59.6828 62.0001 62.0006 59.6824 62.0006 56.8335V16.5338C62.0005 15.9633 61.5386 15.5004 60.9672 15.5004Z" fill="white"/>
<path d="M35.245 23.2029C35.4278 23.5605 35.7916 23.767 36.1677 23.767C36.3247 23.767 36.4859 23.7308 36.6358 23.6544C36.6967 23.6234 42.779 20.5338 45.7787 19.5862C46.3223 19.4136 46.6239 18.8329 46.4514 18.2894C46.2798 17.7458 45.7033 17.4431 45.1546 17.6147C41.9947 18.6139 35.9538 21.6829 35.6976 21.8131C35.1891 22.0714 34.9867 22.6936 35.245 23.2029Z" fill="white"/>
<path d="M35.245 35.6028C35.4278 35.9604 35.7916 36.167 36.1677 36.167C36.3247 36.167 36.4859 36.1308 36.6358 36.0543C36.6967 36.0233 42.779 32.9337 45.7787 31.9861C46.3223 31.8135 46.6239 31.2328 46.4514 30.6893C46.2798 30.1457 45.7033 29.843 45.1546 30.0146C41.9947 31.0138 35.9538 34.0828 35.6976 34.213C35.1891 34.4713 34.9867 35.0935 35.245 35.6028Z" fill="white"/>
<path d="M25.0357 19.177C18.655 17.6797 11.404 19.5872 11.0993 19.6688C10.5485 19.8166 10.221 20.3828 10.3687 20.9346C10.4927 21.3965 10.9101 21.7003 11.3659 21.7003C11.4548 21.7003 11.5446 21.6889 11.6346 21.6652C11.7039 21.6456 18.685 19.8093 24.5647 21.1888C25.1174 21.318 25.6765 20.9739 25.8067 20.4179C25.9368 19.8631 25.5916 19.3071 25.0357 19.177Z" fill="white"/>
<path d="M25.0357 25.3769C18.655 23.8807 11.404 25.7872 11.0993 25.8688C10.5485 26.0165 10.221 26.5829 10.3687 27.1346C10.4927 27.5964 10.9101 27.9003 11.3659 27.9003C11.4548 27.9003 11.5446 27.8889 11.6346 27.8651C11.7039 27.8455 18.685 26.0093 24.5647 27.3888C25.1174 27.518 25.6765 27.1738 25.8067 26.6179C25.9368 26.063 25.5916 25.5071 25.0357 25.3769Z" fill="white"/>
<path d="M35.245 41.8025C35.4278 42.1601 35.7916 42.3667 36.1677 42.3667C36.3247 42.3667 36.4859 42.3305 36.6358 42.254C36.6967 42.223 42.779 39.1334 45.7787 38.1858C46.3223 38.0132 46.6239 37.4325 46.4514 36.889C46.2798 36.3456 45.7033 36.0427 45.1546 36.2143C41.9947 37.2135 35.9538 40.2825 35.6976 40.4127C35.1891 40.671 34.9867 41.2932 35.245 41.8025Z" fill="white"/>
<path d="M25.0357 31.5771C18.655 30.0808 11.404 31.9862 11.0993 32.0689C10.5485 32.2167 10.221 32.783 10.3687 33.3347C10.4927 33.7966 10.9101 34.1015 11.3659 34.1015C11.4548 34.1015 11.5446 34.0891 11.6346 34.0653C11.7039 34.0457 18.685 32.2094 24.5647 33.5889C25.1174 33.7181 25.6765 33.374 25.8067 32.818C25.9368 32.2632 25.5916 31.7072 25.0357 31.5771Z" fill="white"/>
<path d="M25.0357 43.9768C18.655 42.4795 11.404 44.387 11.0993 44.4687C10.5485 44.6164 10.221 45.1827 10.3687 45.7344C10.4927 46.1963 10.9101 46.5012 11.3659 46.5012C11.4548 46.5012 11.5446 46.4888 11.6346 46.465C11.7039 46.4454 18.685 44.6091 24.5647 45.9886C25.1174 46.1167 25.6765 45.7737 25.8067 45.2177C25.9368 44.6629 25.5916 44.1069 25.0357 43.9768Z" fill="white"/>
<path d="M25.0357 37.777C18.655 36.2797 11.404 38.1862 11.0993 38.2689C10.5485 38.4166 10.221 38.983 10.3687 39.5347C10.4927 39.9965 10.9101 40.3014 11.3659 40.3014C11.4548 40.3014 11.5446 40.2891 11.6346 40.2652C11.7039 40.2456 18.685 38.4093 24.5647 39.7888C25.1174 39.918 25.6765 39.5739 25.8067 39.018C25.9368 38.4631 25.5916 37.9072 25.0357 37.777Z" fill="white"/>
</g>
<defs>
<clipPath id="clip0">
<rect width="62" height="62" fill="white"/>
</clipPath>
</defs>
</svg>
