<svg width="78" height="78" viewBox="0 0 78 78" fill="none" xmlns="http://www.w3.org/2000/svg">
<path d="M76.4881 15.6756C76.483 15.6756 76.4779 15.6756 76.473 15.6756H71.3475V13.9218C71.3751 13.2276 70.9261 12.6037 70.259 12.4098C66.7007 11.4774 63.0365 11.0098 59.358 11.0189C53.3103 11.0189 45.0704 12.3796 38.9773 18.5785C32.9296 12.3191 24.6292 11.0189 18.5966 11.0189C14.9181 11.0098 11.254 11.4774 7.69568 12.4098C7.02854 12.6037 6.5795 13.2276 6.60709 13.9218V15.6605H1.51192C0.676963 15.6605 0 16.3374 0 17.1724V65.4632C0 66.2981 0.676963 66.9751 1.51192 66.9751C1.77159 66.9743 2.02673 66.9067 2.25276 66.7785C2.40395 66.7029 17.5232 58.4327 38.6296 63.7547H38.8564H38.9924C39.113 63.7692 39.2347 63.7692 39.3553 63.7547C60.5222 58.3874 75.6414 66.6424 75.7321 66.7785C76.1999 67.0486 76.7763 67.0486 77.244 66.7785C77.709 66.5102 77.9968 66.0152 78 65.4783V17.1875C78 16.3525 77.3232 15.6756 76.4881 15.6756ZM3.02384 63.0592V18.6994H6.63733V56.6184C6.62788 57.4534 7.2971 58.1379 8.13206 58.1473C8.2137 58.1483 8.29534 58.1426 8.37604 58.1303C11.5038 57.6528 14.6617 57.4001 17.8255 57.3744C22.2082 57.2984 26.5726 57.9576 30.7374 59.3247C21.3323 58.1874 11.7924 59.4729 3.02384 63.0592ZM17.8255 54.3656C15.0756 54.3719 12.3288 54.5486 9.6007 54.8948V15.1162C12.5444 14.4604 15.5505 14.1257 18.5664 14.1183C24.221 14.1183 32.0225 15.4186 37.4352 21.5267L37.4805 59.1887C34.3357 57.1325 28.1973 54.3656 17.8255 54.3656ZM40.5044 21.5267C45.917 15.479 53.7186 14.1183 59.3731 14.1183C62.3889 14.1272 65.3949 14.4617 68.3388 15.1162V54.8948C65.6261 54.5454 62.8944 54.3636 60.1593 54.3505C49.848 54.3505 43.6945 57.1173 40.5044 59.1736V21.5267ZM74.961 63.0592C66.1738 59.4631 56.612 58.1774 47.187 59.3247C51.3715 57.9527 55.7566 57.2933 60.1593 57.3744C63.3431 57.3921 66.5213 57.6397 69.6693 58.1152C70.4948 58.2405 71.2657 57.6728 71.391 56.8473C71.4033 56.7666 71.409 56.6849 71.408 56.6033V18.6994H75.0215L74.961 63.0592Z" fill="white"/>
</svg>
