<svg width="677" height="677" viewBox="0 0 677 677" fill="none" xmlns="http://www.w3.org/2000/svg">
<g clip-path="url(#clip0)">
<path d="M618.165 554.153H573.32V554.492H618.165V554.153Z" fill="#EBEBEB"/>
<path d="M457.472 557.836H445.706V558.174H457.472V557.836Z" fill="#EBEBEB"/>
<path d="M571.966 541.588H545.983V541.927H571.966V541.588Z" fill="#EBEBEB"/>
<path d="M138.51 543.863H80.0308V544.201H138.51V543.863Z" fill="#EBEBEB"/>
<path d="M159.145 543.863H150.574V544.201H159.145V543.863Z" fill="#EBEBEB"/>
<path d="M313.853 549.577H187.01V549.915H313.853V549.577Z" fill="#EBEBEB"/>
<path d="M329.898 471.979H68.4677C66.4172 471.979 64.4507 471.164 63.0008 469.714C61.5509 468.265 60.7363 466.298 60.7363 464.248V96.7313C60.7542 94.6926 61.5766 92.7435 63.0246 91.3082C64.4726 89.8729 66.4289 89.0676 68.4677 89.0677H329.898C331.948 89.0677 333.915 89.8822 335.365 91.3321C336.815 92.7821 337.629 94.7485 337.629 96.799V464.248C337.629 466.298 336.815 468.265 335.365 469.714C333.915 471.164 331.948 471.979 329.898 471.979V471.979ZM68.4677 89.3385C66.5081 89.3421 64.6297 90.1221 63.2441 91.5078C61.8584 92.8934 61.0784 94.7717 61.0748 96.7313V464.248C61.0784 466.207 61.8584 468.085 63.2441 469.471C64.6297 470.857 66.5081 471.637 68.4677 471.64H329.898C331.858 471.637 333.736 470.857 335.122 469.471C336.507 468.085 337.287 466.207 337.291 464.248V96.7313C337.287 94.7717 336.507 92.8934 335.122 91.5078C333.736 90.1221 331.858 89.3421 329.898 89.3385H68.4677Z" fill="#EBEBEB"/>
<path d="M622.782 471.979H361.324C359.275 471.975 357.311 471.16 355.861 469.711C354.412 468.261 353.597 466.297 353.593 464.248V96.7313C353.614 94.6937 354.438 92.7466 355.885 91.3121C357.332 89.8775 359.287 89.0711 361.324 89.0677H622.782C624.816 89.0747 626.765 89.8831 628.207 91.3177C629.65 92.7522 630.468 94.6973 630.486 96.7313V464.248C630.486 466.293 629.675 468.256 628.231 469.705C626.787 471.154 624.828 471.972 622.782 471.979V471.979ZM361.324 89.3385C359.365 89.3421 357.486 90.1221 356.101 91.5078C354.715 92.8934 353.935 94.7717 353.932 96.7313V464.248C353.935 466.207 354.715 468.085 356.101 469.471C357.486 470.857 359.365 471.637 361.324 471.64H622.782C624.741 471.637 626.62 470.857 628.005 469.471C629.391 468.085 630.171 466.207 630.175 464.248V96.7313C630.171 94.7717 629.391 92.8934 628.005 91.5078C626.62 90.1221 624.741 89.3421 622.782 89.3385H361.324Z" fill="#EBEBEB"/>
<path d="M686 532.367H9V532.706H686V532.367Z" fill="#EBEBEB"/>
<path d="M592.371 205.16H477.85V493.684H592.371V205.16Z" fill="#E0E0E0"/>
<path d="M592.371 202.628V496.216H613.466V202.628H592.371Z" fill="#E6E6E6"/>
<path d="M457.77 202.628V496.216H478.838V202.628H457.77Z" fill="#E6E6E6"/>
<path d="M454.182 202.628V496.216H594.903V202.628H454.182ZM589.866 207.692V260.335H459.246V207.692H589.866ZM459.246 375.737V323.093H589.866V375.737H459.246ZM589.866 380.801V433.444H459.246V380.801H589.866ZM459.273 318.043V265.399H589.866V318.043H459.273ZM459.273 491.152V438.508H589.866V491.206L459.273 491.152Z" fill="#F5F5F5"/>
<path d="M549.084 219.972H544.223V260.823H549.084V219.972Z" fill="#E6E6E6"/>
<path d="M553.944 219.972H549.083V260.823H553.944V219.972Z" fill="#E0E0E0"/>
<path d="M544.223 222.843H534.487V260.823H544.223V222.843Z" fill="#E6E6E6"/>
<path d="M529.613 219.972H523.317V260.823H529.613V219.972Z" fill="#F0F0F0"/>
<path d="M534.474 219.972H529.613V260.823H534.474V219.972Z" fill="#EBEBEB"/>
<path d="M492.703 219.972H486.407V260.823H492.703V219.972Z" fill="#E6E6E6"/>
<path d="M497.55 219.972H492.689V260.823H497.55V219.972Z" fill="#EBEBEB"/>
<path d="M513.595 219.972H507.299V260.823H513.595V219.972Z" fill="#E6E6E6"/>
<path d="M518.442 219.972H513.582V260.823H518.442V219.972Z" fill="#E0E0E0"/>
<path d="M486.407 220.934H476.672V260.809H486.407V220.934Z" fill="#EBEBEB"/>
<path d="M476.672 220.934H471.797V260.809H476.672V220.934Z" fill="#E0E0E0"/>
<path d="M507.299 220.934H500.813V260.809H507.299V220.934Z" fill="#E0E0E0"/>
<path d="M500.813 220.934H497.564V260.809H500.813V220.934Z" fill="#F0F0F0"/>
<path d="M523.317 222.843H513.582V260.823H523.317V222.843Z" fill="#F5F5F5"/>
<path d="M574.85 219.972H568.554V260.823H574.85V219.972Z" fill="#EBEBEB"/>
<path d="M579.711 219.972H574.85V260.823H579.711V219.972Z" fill="#E6E6E6"/>
<path d="M568.554 220.934H558.819V260.809H568.554V220.934Z" fill="#E0E0E0"/>
<path d="M558.832 220.934H553.958V260.809H558.832V220.934Z" fill="#EBEBEB"/>
<path d="M589.446 220.934H582.96V260.809H589.446V220.934Z" fill="#EBEBEB"/>
<path d="M582.961 220.934H579.711V260.809H582.961V220.934Z" fill="#FAFAFA"/>
<path d="M517.021 277.165H512.16V318.016H517.021V277.165Z" fill="#E6E6E6"/>
<path d="M512.16 277.165H507.299V318.016H512.16V277.165Z" fill="#E0E0E0"/>
<path d="M526.77 280.036H517.034V318.016H526.77V280.036Z" fill="#E6E6E6"/>
<path d="M537.927 277.165H531.63V318.016H537.927V277.165Z" fill="#F0F0F0"/>
<path d="M531.644 277.165H526.77V318.016H531.644V277.165Z" fill="#EBEBEB"/>
<path d="M574.85 277.165H568.554V318.016H574.85V277.165Z" fill="#E6E6E6"/>
<path d="M568.554 277.165H563.693V318.016H568.554V277.165Z" fill="#EBEBEB"/>
<path d="M553.958 277.165H547.662V318.016H553.958V277.165Z" fill="#E6E6E6"/>
<path d="M547.648 277.165H542.787V318.016H547.648V277.165Z" fill="#E0E0E0"/>
<path d="M584.585 278.14H574.85V318.016H584.585V278.14Z" fill="#EBEBEB"/>
<path d="M589.46 278.14H584.585V318.016H589.46V278.14Z" fill="#E0E0E0"/>
<path d="M560.444 278.14H553.958V318.016H560.444V278.14Z" fill="#E0E0E0"/>
<path d="M563.693 278.14H560.444V318.016H563.693V278.14Z" fill="#F0F0F0"/>
<path d="M547.662 280.036H537.927V318.016H547.662V280.036Z" fill="#F5F5F5"/>
<path d="M492.703 277.165H486.407V318.016H492.703V277.165Z" fill="#EBEBEB"/>
<path d="M486.393 277.165H481.532V318.016H486.393V277.165Z" fill="#E6E6E6"/>
<path d="M502.425 278.14H492.689V318.016H502.425V278.14Z" fill="#E0E0E0"/>
<path d="M507.299 278.14H502.425V318.016H507.299V278.14Z" fill="#EBEBEB"/>
<path d="M478.283 278.14H471.797V318.016H478.283V278.14Z" fill="#EBEBEB"/>
<path d="M481.546 278.14H478.296V318.016H481.546V278.14Z" fill="#FAFAFA"/>
<path d="M517.021 335.374H512.16V376.224H517.021V335.374Z" fill="#E6E6E6"/>
<path d="M512.16 335.374H507.299V376.224H512.16V335.374Z" fill="#E0E0E0"/>
<path d="M526.77 338.244H517.034V376.224H526.77V338.244Z" fill="#E6E6E6"/>
<path d="M537.927 335.374H531.63V376.224H537.927V335.374Z" fill="#F0F0F0"/>
<path d="M531.644 335.374H526.77V376.224H531.644V335.374Z" fill="#EBEBEB"/>
<path d="M574.85 335.374H568.554V376.224H574.85V335.374Z" fill="#E6E6E6"/>
<path d="M568.554 335.374H563.693V376.224H568.554V335.374Z" fill="#EBEBEB"/>
<path d="M553.958 335.374H547.662V376.224H553.958V335.374Z" fill="#E6E6E6"/>
<path d="M547.648 335.374H542.787V376.224H547.648V335.374Z" fill="#E0E0E0"/>
<path d="M584.585 336.349H574.85V376.224H584.585V336.349Z" fill="#EBEBEB"/>
<path d="M589.46 336.349H584.585V376.224H589.46V336.349Z" fill="#E0E0E0"/>
<path d="M560.444 336.349H553.958V376.224H560.444V336.349Z" fill="#E0E0E0"/>
<path d="M563.693 336.349H560.444V376.224H563.693V336.349Z" fill="#F0F0F0"/>
<path d="M547.662 338.244H537.927V376.224H547.662V338.244Z" fill="#F5F5F5"/>
<path d="M492.703 335.374H486.407V376.224H492.703V335.374Z" fill="#EBEBEB"/>
<path d="M486.393 335.374H481.532V376.224H486.393V335.374Z" fill="#E6E6E6"/>
<path d="M502.425 336.349H492.689V376.224H502.425V336.349Z" fill="#E0E0E0"/>
<path d="M507.299 336.349H502.425V376.224H507.299V336.349Z" fill="#EBEBEB"/>
<path d="M478.283 336.349H471.797V376.224H478.283V336.349Z" fill="#EBEBEB"/>
<path d="M481.546 336.349H478.296V376.224H481.546V336.349Z" fill="#FAFAFA"/>
<path d="M549.084 393.596H544.223V434.446H549.084V393.596Z" fill="#E6E6E6"/>
<path d="M553.944 393.596H549.083V434.446H553.944V393.596Z" fill="#E0E0E0"/>
<path d="M544.223 393.596H534.487V431.576H544.223V393.596Z" fill="#E6E6E6"/>
<path d="M529.613 393.596H523.317V434.446H529.613V393.596Z" fill="#F0F0F0"/>
<path d="M534.474 393.596H529.613V434.446H534.474V393.596Z" fill="#EBEBEB"/>
<path d="M492.703 393.596H486.407V434.446H492.703V393.596Z" fill="#E6E6E6"/>
<path d="M497.55 393.596H492.689V434.446H497.55V393.596Z" fill="#EBEBEB"/>
<path d="M513.595 393.596H507.299V434.446H513.595V393.596Z" fill="#E6E6E6"/>
<path d="M518.442 393.596H513.582V434.446H518.442V393.596Z" fill="#E0E0E0"/>
<path d="M486.407 393.596H476.672V433.471H486.407V393.596Z" fill="#EBEBEB"/>
<path d="M476.672 393.596H471.797V433.471H476.672V393.596Z" fill="#E0E0E0"/>
<path d="M507.299 393.596H500.813V433.471H507.299V393.596Z" fill="#E0E0E0"/>
<path d="M500.813 393.596H497.564V433.471H500.813V393.596Z" fill="#F0F0F0"/>
<path d="M523.317 393.596H513.582V431.576H523.317V393.596Z" fill="#F5F5F5"/>
<path d="M574.85 393.596H568.554V434.446H574.85V393.596Z" fill="#EBEBEB"/>
<path d="M579.711 393.596H574.85V434.446H579.711V393.596Z" fill="#E6E6E6"/>
<path d="M568.554 393.596H558.819V433.471H568.554V393.596Z" fill="#E0E0E0"/>
<path d="M558.832 393.596H553.958V433.471H558.832V393.596Z" fill="#EBEBEB"/>
<path d="M589.446 393.596H582.96V433.471H589.446V393.596Z" fill="#EBEBEB"/>
<path d="M582.961 393.596H579.711V433.471H582.961V393.596Z" fill="#FAFAFA"/>
<path d="M517.021 451.804H512.16V492.654H517.021V451.804Z" fill="#E6E6E6"/>
<path d="M512.16 451.804H507.299V492.654H512.16V451.804Z" fill="#E0E0E0"/>
<path d="M526.77 451.804H517.034V489.784H526.77V451.804Z" fill="#E6E6E6"/>
<path d="M537.927 451.804H531.63V492.654H537.927V451.804Z" fill="#F0F0F0"/>
<path d="M531.644 451.804H526.77V492.654H531.644V451.804Z" fill="#EBEBEB"/>
<path d="M574.85 451.804H568.554V492.654H574.85V451.804Z" fill="#E6E6E6"/>
<path d="M568.554 451.804H563.693V492.654H568.554V451.804Z" fill="#EBEBEB"/>
<path d="M553.958 451.804H547.662V492.654H553.958V451.804Z" fill="#E6E6E6"/>
<path d="M547.648 451.804H542.787V492.654H547.648V451.804Z" fill="#E0E0E0"/>
<path d="M584.585 451.804H574.85V491.68H584.585V451.804Z" fill="#EBEBEB"/>
<path d="M589.46 451.804H584.585V491.68H589.46V451.804Z" fill="#E0E0E0"/>
<path d="M560.444 451.804H553.958V491.68H560.444V451.804Z" fill="#E0E0E0"/>
<path d="M563.693 451.804H560.444V491.68H563.693V451.804Z" fill="#F0F0F0"/>
<path d="M547.662 451.804H537.927V489.784H547.662V451.804Z" fill="#F5F5F5"/>
<path d="M492.703 451.804H486.407V492.654H492.703V451.804Z" fill="#EBEBEB"/>
<path d="M486.393 451.804H481.532V492.654H486.393V451.804Z" fill="#E6E6E6"/>
<path d="M502.425 451.804H492.689V491.68H502.425V451.804Z" fill="#E0E0E0"/>
<path d="M507.299 451.804H502.425V491.68H507.299V451.804Z" fill="#EBEBEB"/>
<path d="M478.283 451.804H471.797V491.68H478.283V451.804Z" fill="#EBEBEB"/>
<path d="M481.546 451.804H478.296V491.68H481.546V451.804Z" fill="#FAFAFA"/>
<path d="M589.581 150.81H504.104V179.109H589.581V150.81Z" fill="#E6E6E6"/>
<path d="M505.539 89.3385H504.185V150.81H505.539V89.3385Z" fill="#E6E6E6"/>
<path d="M589.446 89.3385H588.092V150.81H589.446V89.3385Z" fill="#E6E6E6"/>
<path d="M452.422 189.738H321.287V520.114H452.422V189.738Z" fill="#E0E0E0"/>
<path d="M452.421 186.84V523.011H476.577V186.84H452.421Z" fill="#E6E6E6"/>
<path d="M298.282 186.84V523.011H322.451V186.84H298.282Z" fill="#E6E6E6"/>
<path d="M294.179 186.84V523.011H455.305V186.84H294.179ZM449.524 192.635V252.902H299.975V192.635H449.524ZM299.975 385.066V324.786H449.524V385.066H299.975ZM449.524 390.861V451.141H299.975V390.861H449.524ZM299.975 318.99V258.71H449.524V318.99H299.975ZM299.975 517.216V456.936H449.524V517.216H299.975Z" fill="#F5F5F5"/>
<path d="M402.851 206.69H397.273V253.457H402.851V206.69Z" fill="#E6E6E6"/>
<path d="M408.43 206.69H402.852V253.457H408.43V206.69Z" fill="#E0E0E0"/>
<path d="M397.273 209.98H386.13V253.47H397.273V209.98Z" fill="#E6E6E6"/>
<path d="M380.551 206.69H373.348V253.457H380.551V206.69Z" fill="#F0F0F0"/>
<path d="M386.129 206.69H380.551V253.457H386.129V206.69Z" fill="#EBEBEB"/>
<path d="M338.279 206.69H331.076V253.457H338.279V206.69Z" fill="#E6E6E6"/>
<path d="M343.858 206.69H338.279V253.457H343.858V206.69Z" fill="#EBEBEB"/>
<path d="M362.205 206.69H355.001V253.457H362.205V206.69Z" fill="#E6E6E6"/>
<path d="M367.783 206.69H362.204V253.457H367.783V206.69Z" fill="#E0E0E0"/>
<path d="M331.076 207.8H319.933V253.47H331.076V207.8Z" fill="#EBEBEB"/>
<path d="M319.933 207.8H314.354V253.47H319.933V207.8Z" fill="#E0E0E0"/>
<path d="M355.001 207.8H347.568V253.47H355.001V207.8Z" fill="#E0E0E0"/>
<path d="M347.568 207.8H343.858V253.47H347.568V207.8Z" fill="#F0F0F0"/>
<path d="M373.348 209.98H362.204V253.47H373.348V209.98Z" fill="#F5F5F5"/>
<path d="M432.342 206.69H425.138V253.457H432.342V206.69Z" fill="#EBEBEB"/>
<path d="M437.92 206.69H432.342V253.457H437.92V206.69Z" fill="#E6E6E6"/>
<path d="M425.138 207.8H413.995V253.47H425.138V207.8Z" fill="#E0E0E0"/>
<path d="M413.995 207.8H408.417V253.47H413.995V207.8Z" fill="#EBEBEB"/>
<path d="M449.064 207.8H441.63V253.47H449.064V207.8Z" fill="#EBEBEB"/>
<path d="M441.63 207.8H437.92V253.47H441.63V207.8Z" fill="#FAFAFA"/>
<path d="M366.158 272.183H360.58V318.95H366.158V272.183Z" fill="#E6E6E6"/>
<path d="M360.58 272.183H355.001V318.95H360.58V272.183Z" fill="#E0E0E0"/>
<path d="M377.288 275.473H366.145V318.963H377.288V275.473Z" fill="#E6E6E6"/>
<path d="M390.07 272.183H382.866V318.95H390.07V272.183Z" fill="#F0F0F0"/>
<path d="M382.88 272.183H377.302V318.95H382.88V272.183Z" fill="#EBEBEB"/>
<path d="M432.342 272.183H425.138V318.95H432.342V272.183Z" fill="#E6E6E6"/>
<path d="M425.152 272.183H419.573V318.95H425.152V272.183Z" fill="#EBEBEB"/>
<path d="M408.416 272.183H401.213V318.95H408.416V272.183Z" fill="#E6E6E6"/>
<path d="M401.227 272.183H395.648V318.95H401.227V272.183Z" fill="#E0E0E0"/>
<path d="M443.485 273.293H432.342V318.963H443.485V273.293Z" fill="#EBEBEB"/>
<path d="M449.077 273.293H443.499V318.963H449.077V273.293Z" fill="#E0E0E0"/>
<path d="M415.85 273.293H408.417V318.963H415.85V273.293Z" fill="#E0E0E0"/>
<path d="M419.56 273.293H415.85V318.963H419.56V273.293Z" fill="#F0F0F0"/>
<path d="M401.213 275.473H390.07V318.963H401.213V275.473Z" fill="#F5F5F5"/>
<path d="M338.279 272.183H331.076V318.95H338.279V272.183Z" fill="#EBEBEB"/>
<path d="M331.076 272.183H325.498V318.95H331.076V272.183Z" fill="#E6E6E6"/>
<path d="M349.423 273.293H338.279V318.963H349.423V273.293Z" fill="#E0E0E0"/>
<path d="M355.001 273.293H349.423V318.963H355.001V273.293Z" fill="#EBEBEB"/>
<path d="M321.787 273.293H314.354V318.963H321.787V273.293Z" fill="#EBEBEB"/>
<path d="M325.498 273.293H321.788V318.963H325.498V273.293Z" fill="#FAFAFA"/>
<path d="M366.158 338.84H360.58V385.607H366.158V338.84Z" fill="#E6E6E6"/>
<path d="M360.58 338.84H355.001V385.607H360.58V338.84Z" fill="#E0E0E0"/>
<path d="M377.288 342.13H366.145V385.621H377.288V342.13Z" fill="#E6E6E6"/>
<path d="M390.07 338.84H382.866V385.607H390.07V338.84Z" fill="#F0F0F0"/>
<path d="M382.88 338.84H377.302V385.607H382.88V338.84Z" fill="#EBEBEB"/>
<path d="M432.342 338.84H425.138V385.607H432.342V338.84Z" fill="#E6E6E6"/>
<path d="M425.152 338.84H419.573V385.607H425.152V338.84Z" fill="#EBEBEB"/>
<path d="M408.416 338.84H401.213V385.607H408.416V338.84Z" fill="#E6E6E6"/>
<path d="M401.227 338.84H395.648V385.607H401.227V338.84Z" fill="#E0E0E0"/>
<path d="M443.485 339.95H432.342V385.621H443.485V339.95Z" fill="#EBEBEB"/>
<path d="M449.077 339.95H443.499V385.621H449.077V339.95Z" fill="#E0E0E0"/>
<path d="M415.85 339.95H408.417V385.621H415.85V339.95Z" fill="#E0E0E0"/>
<path d="M419.56 339.95H415.85V385.621H419.56V339.95Z" fill="#F0F0F0"/>
<path d="M401.213 342.13H390.07V385.621H401.213V342.13Z" fill="#F5F5F5"/>
<path d="M338.279 338.84H331.076V385.607H338.279V338.84Z" fill="#EBEBEB"/>
<path d="M331.076 338.84H325.498V385.607H331.076V338.84Z" fill="#E6E6E6"/>
<path d="M349.423 339.95H338.279V385.621H349.423V339.95Z" fill="#E0E0E0"/>
<path d="M355.001 339.95H349.423V385.621H355.001V339.95Z" fill="#EBEBEB"/>
<path d="M321.787 339.95H314.354V385.621H321.787V339.95Z" fill="#EBEBEB"/>
<path d="M325.498 339.95H321.788V385.621H325.498V339.95Z" fill="#FAFAFA"/>
<path d="M402.851 405.498H397.273V452.265H402.851V405.498Z" fill="#E6E6E6"/>
<path d="M408.43 405.498H402.852V452.265H408.43V405.498Z" fill="#E0E0E0"/>
<path d="M397.273 405.498H386.13V448.988H397.273V405.498Z" fill="#E6E6E6"/>
<path d="M380.551 405.498H373.348V452.265H380.551V405.498Z" fill="#F0F0F0"/>
<path d="M386.129 405.498H380.551V452.265H386.129V405.498Z" fill="#EBEBEB"/>
<path d="M338.279 405.498H331.076V452.265H338.279V405.498Z" fill="#E6E6E6"/>
<path d="M343.858 405.498H338.279V452.265H343.858V405.498Z" fill="#EBEBEB"/>
<path d="M362.205 405.498H355.001V452.265H362.205V405.498Z" fill="#E6E6E6"/>
<path d="M367.783 405.498H362.204V452.265H367.783V405.498Z" fill="#E0E0E0"/>
<path d="M331.076 405.498H319.933V451.168H331.076V405.498Z" fill="#EBEBEB"/>
<path d="M319.933 405.498H314.354V451.168H319.933V405.498Z" fill="#E0E0E0"/>
<path d="M355.001 405.498H347.568V451.168H355.001V405.498Z" fill="#E0E0E0"/>
<path d="M347.568 405.498H343.858V451.168H347.568V405.498Z" fill="#F0F0F0"/>
<path d="M373.348 405.498H362.204V448.988H373.348V405.498Z" fill="#F5F5F5"/>
<path d="M432.342 405.498H425.138V452.265H432.342V405.498Z" fill="#EBEBEB"/>
<path d="M437.92 405.498H432.342V452.265H437.92V405.498Z" fill="#E6E6E6"/>
<path d="M425.138 405.498H413.995V451.168H425.138V405.498Z" fill="#E0E0E0"/>
<path d="M413.995 405.498H408.417V451.168H413.995V405.498Z" fill="#EBEBEB"/>
<path d="M449.064 405.498H441.63V451.168H449.064V405.498Z" fill="#EBEBEB"/>
<path d="M441.63 405.498H437.92V451.168H441.63V405.498Z" fill="#FAFAFA"/>
<path d="M366.158 472.155H360.58V518.922H366.158V472.155Z" fill="#E6E6E6"/>
<path d="M360.58 472.155H355.001V518.922H360.58V472.155Z" fill="#E0E0E0"/>
<path d="M377.288 472.155H366.145V515.645H377.288V472.155Z" fill="#E6E6E6"/>
<path d="M390.07 472.155H382.866V518.922H390.07V472.155Z" fill="#F0F0F0"/>
<path d="M382.88 472.155H377.302V518.922H382.88V472.155Z" fill="#EBEBEB"/>
<path d="M432.342 472.155H425.138V518.922H432.342V472.155Z" fill="#E6E6E6"/>
<path d="M425.152 472.155H419.573V518.922H425.152V472.155Z" fill="#EBEBEB"/>
<path d="M408.416 472.155H401.213V518.922H408.416V472.155Z" fill="#E6E6E6"/>
<path d="M401.227 472.155H395.648V518.922H401.227V472.155Z" fill="#E0E0E0"/>
<path d="M443.485 472.155H432.342V517.825H443.485V472.155Z" fill="#EBEBEB"/>
<path d="M449.077 472.155H443.499V517.825H449.077V472.155Z" fill="#E0E0E0"/>
<path d="M415.85 472.155H408.417V517.825H415.85V472.155Z" fill="#E0E0E0"/>
<path d="M419.56 472.155H415.85V517.825H419.56V472.155Z" fill="#F0F0F0"/>
<path d="M401.213 472.155H390.07V515.645H401.213V472.155Z" fill="#F5F5F5"/>
<path d="M338.279 472.155H331.076V518.922H338.279V472.155Z" fill="#EBEBEB"/>
<path d="M331.076 472.155H325.498V518.922H331.076V472.155Z" fill="#E6E6E6"/>
<path d="M349.423 472.155H338.279V517.825H349.423V472.155Z" fill="#E0E0E0"/>
<path d="M355.001 472.155H349.423V517.825H355.001V472.155Z" fill="#EBEBEB"/>
<path d="M321.787 472.155H314.354V517.825H321.787V472.155Z" fill="#EBEBEB"/>
<path d="M325.498 472.155H321.788V517.825H325.498V472.155Z" fill="#FAFAFA"/>
<path d="M428.848 127.508H330.968V159.909H428.848V127.508Z" fill="#E6E6E6"/>
<path d="M332.511 89.3385H331.157V127.494H332.511V89.3385Z" fill="#E6E6E6"/>
<path d="M428.686 89H427.332V127.494H428.686V89Z" fill="#E6E6E6"/>
<path d="M340.974 588.301C485.964 588.301 603.501 581.439 603.501 572.974C603.501 564.509 485.964 557.646 340.974 557.646C195.984 557.646 78.4468 564.509 78.4468 572.974C78.4468 581.439 195.984 588.301 340.974 588.301Z" fill="#F5F5F5"/>
<path d="M569.273 478.192H576.869L589.908 566.744C590.233 569.018 588.473 569.912 586.184 569.912C584.316 569.912 582.745 569.682 582.461 567.84L569.273 478.192Z" fill="#263238"/>
<path opacity="0.2" d="M569.273 478.192H576.869L589.908 566.744C590.233 569.018 588.473 569.912 586.184 569.912C584.316 569.912 582.745 569.682 582.461 567.84L569.273 478.192Z" fill="white"/>
<path d="M545.199 478.192H552.795L559.335 566.987C559.497 569.181 557.764 569.912 555.557 569.912C553.58 569.912 551.928 569.519 551.779 567.543L545.199 478.192Z" fill="#263238"/>
<path opacity="0.2" d="M545.199 478.192H552.795L559.335 566.987C559.497 569.181 557.764 569.912 555.557 569.912C553.58 569.912 551.928 569.519 551.779 567.543L545.199 478.192Z" fill="white"/>
<path d="M527.191 478.192H519.595L513.028 566.987C512.865 569.181 514.612 569.912 516.805 569.912C518.796 569.912 520.434 569.519 520.583 567.543L527.191 478.192Z" fill="#263238"/>
<path opacity="0.2" d="M527.191 478.192H519.595L513.028 566.987C512.865 569.181 514.612 569.912 516.805 569.912C518.796 569.912 520.434 569.519 520.583 567.543L527.191 478.192Z" fill="white"/>
<path d="M503.13 478.192H495.534L482.495 566.744C482.156 569.018 483.917 569.912 486.205 569.912C488.073 569.912 489.658 569.682 489.928 567.84L503.13 478.192Z" fill="#263238"/>
<path opacity="0.2" d="M503.13 478.192H495.534L482.495 566.744C482.156 569.018 483.917 569.912 486.205 569.912C488.073 569.912 489.658 569.682 489.928 567.84L503.13 478.192Z" fill="white"/>
<path d="M556.545 376.006L524.889 472.573H594.132L606.102 370.834H563.695C562.11 370.832 560.565 371.331 559.281 372.26C557.997 373.189 557.039 374.5 556.545 376.006V376.006Z" fill="#263238"/>
<path opacity="0.2" d="M556.545 376.006L524.889 472.573H594.132L606.102 370.834H563.695C562.11 370.832 560.565 371.331 559.281 372.26C557.997 373.189 557.039 374.5 556.545 376.006V376.006Z" fill="white"/>
<path d="M545.7 464.828H477.12C476.367 464.828 475.621 464.977 474.925 465.266C474.229 465.554 473.597 465.977 473.065 466.511C472.533 467.044 472.111 467.677 471.824 468.373C471.537 469.07 471.391 469.816 471.392 470.569V474.564C471.391 475.317 471.537 476.063 471.824 476.759C472.111 477.456 472.533 478.089 473.065 478.622C473.597 479.155 474.229 479.579 474.925 479.867C475.621 480.156 476.367 480.305 477.12 480.305H545.7V464.828Z" fill="#263238"/>
<path opacity="0.1" d="M545.7 464.828H477.12C476.367 464.828 475.621 464.977 474.925 465.266C474.229 465.554 473.597 465.977 473.065 466.511C472.533 467.044 472.111 467.677 471.824 468.373C471.537 469.07 471.391 469.816 471.392 470.569V474.564C471.391 475.317 471.537 476.063 471.824 476.759C472.111 477.456 472.533 478.089 473.065 478.622C473.597 479.155 474.229 479.579 474.925 479.867C475.621 480.156 476.367 480.305 477.12 480.305H545.7V464.828Z" fill="white"/>
<path d="M600.32 376.48L591.384 454.05C591.051 457.026 589.634 459.775 587.404 461.773C585.174 463.771 582.287 464.878 579.292 464.882H531.496C530.743 464.882 529.997 465.031 529.301 465.32C528.606 465.608 527.974 466.031 527.442 466.565C526.91 467.098 526.488 467.731 526.201 468.427C525.914 469.124 525.767 469.87 525.769 470.623V474.618C525.767 475.371 525.914 476.117 526.201 476.814C526.488 477.51 526.91 478.143 527.442 478.676C527.974 479.21 528.606 479.633 529.301 479.921C529.997 480.21 530.743 480.359 531.496 480.359H589.366C592.388 480.357 595.302 479.232 597.541 477.203C599.78 475.174 601.186 472.385 601.485 469.378L611.22 370.888H606.657C605.1 370.886 603.596 371.453 602.429 372.483C601.262 373.513 600.512 374.935 600.32 376.48V376.48Z" fill="#263238"/>
<path opacity="0.3" d="M600.32 376.48L591.384 454.05C591.051 457.026 589.634 459.775 587.404 461.773C585.174 463.771 582.287 464.878 579.292 464.882H531.496C530.743 464.882 529.997 465.031 529.301 465.32C528.606 465.608 527.974 466.031 527.442 466.565C526.91 467.098 526.488 467.731 526.201 468.427C525.914 469.124 525.767 469.87 525.769 470.623V474.618C525.767 475.371 525.914 476.117 526.201 476.814C526.488 477.51 526.91 478.143 527.442 478.676C527.974 479.21 528.606 479.633 529.301 479.921C529.997 480.21 530.743 480.359 531.496 480.359H589.366C592.388 480.357 595.302 479.232 597.541 477.203C599.78 475.174 601.186 472.385 601.485 469.378L611.22 370.888H606.657C605.1 370.886 603.596 371.453 602.429 372.483C601.262 373.513 600.512 374.935 600.32 376.48V376.48Z" fill="white"/>
<path d="M489.021 539.65L489.996 557.767L479.855 558.552L477.323 541.343L489.021 539.65Z" fill="#FF8B7B"/>
<path d="M475.468 559.568C474.377 559.754 473.256 559.537 472.313 558.958C472.201 558.797 472.141 558.606 472.141 558.41C472.141 558.214 472.201 558.023 472.313 557.862C472.476 557.561 472.747 557.334 473.071 557.225C474.804 556.63 478.623 558.498 478.799 558.579C478.845 558.599 478.883 558.634 478.908 558.678C478.932 558.722 478.941 558.773 478.934 558.823C478.928 558.874 478.906 558.922 478.873 558.96C478.839 558.999 478.794 559.026 478.745 559.04C477.67 559.313 476.574 559.49 475.468 559.568V559.568ZM473.667 557.618C473.506 557.617 473.345 557.644 473.193 557.699C473.089 557.724 472.992 557.772 472.91 557.84C472.828 557.908 472.763 557.994 472.719 558.092C472.557 558.403 472.625 558.552 472.719 558.633C473.247 559.297 475.915 559.148 477.865 558.769C476.553 558.118 475.127 557.727 473.667 557.618V557.618Z" fill="#407BFF"/>
<path d="M478.65 559.053C478.615 559.067 478.576 559.067 478.541 559.053C477.187 558.579 474.561 556.44 474.71 555.235C474.71 554.951 474.913 554.585 475.59 554.477C476.068 554.413 476.552 554.534 476.944 554.815C478.365 555.831 478.826 558.674 478.853 558.796C478.859 558.841 478.853 558.887 478.837 558.93C478.82 558.973 478.793 559.01 478.758 559.04C478.723 559.051 478.686 559.056 478.65 559.053V559.053ZM475.793 554.991H475.644C475.197 555.059 475.184 555.235 475.17 555.303C475.17 556.02 476.93 557.713 478.284 558.403C478.084 557.211 477.521 556.11 476.673 555.248C476.418 555.063 476.107 554.972 475.793 554.991V554.991Z" fill="#407BFF"/>
<path d="M479.679 557.51L491.215 556.778C491.426 556.767 491.635 556.828 491.807 556.951C491.979 557.074 492.105 557.252 492.163 557.455L494.871 566.703C494.929 566.898 494.948 567.102 494.927 567.304C494.906 567.506 494.846 567.702 494.749 567.881C494.652 568.06 494.521 568.217 494.363 568.345C494.205 568.473 494.023 568.568 493.828 568.626C493.723 568.662 493.614 568.684 493.503 568.694C489.346 568.883 485.623 568.883 480.451 569.222C474.344 569.614 475.942 570.237 468.766 570.792C464.433 571.131 463.35 566.256 465.15 565.904C473.491 564.307 474.195 561.72 477.242 558.512C477.908 557.897 478.773 557.541 479.679 557.51V557.51Z" fill="#263238"/>
<path opacity="0.2" d="M477.323 541.343L478.582 549.927L489.536 549.128L489.021 539.65L477.323 541.343Z" fill="#263238"/>
<path d="M531.32 426.497C531.32 426.497 474.1 434.837 466.423 453.576C458.746 472.316 475.373 542.467 475.373 542.467L491.025 541.113C491.025 541.113 490.903 497.988 487.735 465.871L531.32 463.745L571.318 423.03L531.32 426.497Z" fill="#407BFF"/>
<path opacity="0.5" d="M531.32 426.497C531.32 426.497 474.1 434.837 466.423 453.576C458.746 472.316 475.373 542.467 475.373 542.467L491.025 541.113C491.025 541.113 490.903 497.988 487.735 465.871L531.32 463.745L571.318 423.03L531.32 426.497Z" fill="black"/>
<path d="M474.303 541.586L492.014 539.65V544.511L475.278 545.973L474.303 541.586Z" fill="#407BFF"/>
<path d="M527.908 541.681L528.883 559.811L518.742 560.583L516.21 543.374L527.908 541.681Z" fill="#FF8B7B"/>
<path d="M514.382 561.599C513.287 561.792 512.159 561.575 511.213 560.989C511.102 560.828 511.042 560.637 511.042 560.441C511.042 560.245 511.102 560.054 511.213 559.893C511.374 559.595 511.639 559.368 511.958 559.256C513.691 558.661 517.51 560.543 517.686 560.61C517.733 560.633 517.772 560.67 517.796 560.716C517.82 560.763 517.829 560.816 517.821 560.867C517.812 560.917 517.789 560.963 517.756 561.002C517.722 561.04 517.68 561.068 517.631 561.084C516.564 561.346 515.477 561.518 514.382 561.599ZM512.567 559.649C512.405 559.652 512.245 559.684 512.094 559.744C511.991 559.766 511.894 559.811 511.812 559.877C511.729 559.943 511.664 560.027 511.62 560.123C511.457 560.448 511.525 560.597 511.62 560.664C512.148 561.328 514.815 561.179 516.778 560.813C515.457 560.161 514.023 559.766 512.554 559.649H512.567Z" fill="#407BFF"/>
<path d="M517.536 561.138H517.428C516.074 560.664 513.447 558.525 513.596 557.334C513.596 557.036 513.799 556.684 514.49 556.562C514.738 556.522 514.991 556.532 515.235 556.59C515.478 556.648 515.709 556.753 515.912 556.9C517.266 557.929 517.78 560.759 517.807 560.895C517.812 560.938 517.806 560.982 517.79 561.022C517.773 561.062 517.746 561.097 517.712 561.125C517.657 561.149 517.595 561.154 517.536 561.138ZM514.68 557.076H514.544C514.084 557.144 514.07 557.334 514.057 557.401C514.057 558.119 515.817 559.798 517.171 560.502C516.978 559.31 516.42 558.208 515.573 557.347C515.315 557.159 514.998 557.067 514.68 557.09V557.076Z" fill="#407BFF"/>
<path d="M518.566 559.541L530.102 558.809C530.313 558.798 530.522 558.859 530.694 558.982C530.866 559.105 530.991 559.283 531.049 559.486L533.757 568.734C533.875 569.129 533.832 569.555 533.636 569.918C533.441 570.281 533.11 570.552 532.715 570.67H532.39C528.233 570.86 524.523 570.86 519.337 571.199C513.231 571.591 514.829 572.228 507.652 572.783C503.32 573.108 502.236 568.233 504.037 567.881C512.378 566.297 513.082 563.697 516.142 560.488C516.809 559.891 517.67 559.555 518.566 559.541Z" fill="#263238"/>
<path opacity="0.2" d="M528.45 551.742L527.908 541.681L516.21 543.374L517.55 552.486L528.45 551.742Z" fill="#263238"/>
<path d="M586.252 425.643C586.252 425.643 598.181 464.449 574.31 465.302C550.439 466.155 518.863 465.302 518.863 465.302C518.863 465.302 529.993 495.903 530.034 545.053L515.032 546.325C515.032 546.325 489.807 463.217 495.845 452.087C503.969 437.193 560.228 425.643 560.228 425.643H586.252Z" fill="#407BFF"/>
<path opacity="0.4" d="M586.252 425.643C586.252 425.643 598.181 464.449 574.31 465.302C550.439 466.155 518.863 465.302 518.863 465.302C518.863 465.302 529.993 495.903 530.034 545.053L515.032 546.325C515.032 546.325 489.807 463.217 495.845 452.087C503.969 437.193 560.228 425.643 560.228 425.643H586.252Z" fill="black"/>
<path d="M513.285 544.308L514.49 549.101L531.239 547.693V543.076L513.285 544.308Z" fill="#407BFF"/>
<path d="M548.706 332.867C548.706 332.867 534.11 329.685 527.38 351.823C523.318 365.025 524.049 383.087 524.049 383.087L499.908 383.561L496.915 393.364C496.915 393.364 528.057 393.784 536.181 392.728C544.305 391.672 548.706 332.867 548.706 332.867Z" fill="#FEB546"/>
<path d="M532.512 426.131C532.512 426.131 524.835 329.699 548.299 329.699H581.987C590.111 329.699 594.782 340.788 593.076 360.841C591.37 380.894 589.664 430.355 589.664 430.355L532.512 426.131Z" fill="#FEB546"/>
<path opacity="0.2" d="M532.698 426.225C532.698 426.225 525.021 329.793 548.485 329.793H582.173C590.297 329.793 594.968 340.883 593.262 360.935C591.556 380.988 589.85 430.45 589.85 430.45L532.698 426.225Z" fill="white"/>
<path d="M495.805 381.462L498.513 381.814C499.104 381.891 499.67 382.1 500.17 382.426C500.669 382.752 501.088 383.186 501.397 383.697L505.202 390.06C505.509 390.564 505.711 391.125 505.797 391.709C505.883 392.293 505.851 392.888 505.703 393.459L505.093 395.855C504.935 396.479 504.644 397.061 504.24 397.562C503.836 398.063 503.329 398.471 502.753 398.757C502.177 399.044 501.546 399.203 500.903 399.223C500.26 399.243 499.62 399.125 499.027 398.875L494.573 396.993C493.764 396.654 493.032 396.153 492.422 395.523C491.812 394.892 491.337 394.144 491.025 393.323L489.915 390.439C489.549 389.424 489.549 388.313 489.915 387.298L490.849 384.59C491.186 383.576 491.863 382.71 492.767 382.139C493.671 381.569 494.744 381.33 495.805 381.462V381.462Z" fill="#CE7A63"/>
<path d="M497.782 383.168L506.095 402.355L518.891 407.256L535.951 398.739L535.856 379.337L527.069 378.05L519.798 381.611L515.858 385.403L510.685 378.849L503.97 378.05L499.65 379.973L497.782 383.168Z" fill="#407BFF"/>
<path opacity="0.1" d="M497.782 383.168L506.095 402.355L518.891 407.256L535.951 398.739L535.856 379.337L527.069 378.05L519.798 381.611L515.858 385.403L510.685 378.849L503.97 378.05L499.65 379.973L497.782 383.168Z" fill="black"/>
<path opacity="0.2" d="M521.247 406.078L518.593 382.762L515.858 385.403L512.283 380.88L516.602 406.39L518.891 407.256L521.247 406.078Z" fill="black"/>
<path d="M497.145 379.973C497.145 379.973 508.871 368.031 516.101 383.168C516.101 383.168 528.287 368.884 535.843 379.337L534.868 383.168C534.868 383.168 530.941 373.69 515.844 387.718C515.844 387.718 508.221 372.932 497.768 383.168L497.145 379.973Z" fill="#407BFF"/>
<path opacity="0.8" d="M497.145 379.973C497.145 379.973 508.871 368.031 516.101 383.168C516.101 383.168 528.287 368.884 535.843 379.337L534.868 383.168C534.868 383.168 530.941 373.69 515.844 387.718C515.844 387.718 508.221 372.932 497.768 383.168L497.145 379.973Z" fill="white"/>
<path d="M557.94 384.861H545.063L541.678 381.72C540.964 381.05 540.099 380.563 539.155 380.301C538.212 380.04 537.219 380.011 536.262 380.217L534.692 380.542C533.641 380.759 532.551 380.689 531.537 380.339C530.334 379.936 529.037 379.918 527.823 380.287C526.61 380.656 525.542 381.393 524.767 382.397L524.523 382.722C523.756 383.721 523.318 384.935 523.272 386.194C523.226 387.454 523.574 388.696 524.266 389.749L527.516 394.691C528.207 395.768 529.22 396.6 530.411 397.07C531.602 397.539 532.91 397.621 534.15 397.304L543.235 395.002L558.739 397.088L557.94 384.861Z" fill="#CE7A63"/>
<path d="M579.848 353.15C578.846 347.098 574.729 329.699 585.819 329.699C596.908 329.699 598.722 346.759 599.359 357.307C599.995 367.855 601.958 400.12 594.579 400.148C587.2 400.175 555.543 397.616 555.543 397.616L555.868 383.534L583.693 381.3C583.693 381.3 581.12 360.827 579.848 353.15Z" fill="#FEB546"/>
<path opacity="0.3" d="M579.903 353.185C578.901 347.133 574.785 329.734 585.874 329.734C596.964 329.734 598.778 346.795 599.414 357.342C600.051 367.89 602.014 400.156 594.635 400.183C587.255 400.21 555.599 397.651 555.599 397.651L555.924 383.569L583.749 381.335C583.749 381.335 581.176 360.863 579.903 353.185Z" fill="white"/>
<path d="M550.412 330.214L550.615 331.08L557.656 335.562L571.331 330.39L571.507 330.268C566.226 324.933 568.203 315.144 569.963 307.25L563.397 312.666L554.447 320.126C554.724 321.327 554.928 322.543 555.056 323.769C555.476 327.668 554.406 328.995 550.412 330.214Z" fill="#CE7A63"/>
<path d="M542.288 291.489C542.288 291.489 534.665 296.607 536.547 299.735C539.593 304.785 543.899 296.296 543.899 296.296L542.288 291.489Z" fill="#263238"/>
<path opacity="0.2" d="M566.606 319.896C566.847 318.328 566.892 316.736 566.741 315.157L554.826 322.09C554.907 322.658 554.988 323.227 555.056 323.809C555.262 324.983 555.164 326.19 554.772 327.316C559.159 326.896 565.306 324.188 566.606 319.896Z" fill="black"/>
<path d="M569.3 295.131C570.654 305.882 572.008 312.07 567.662 318.664C561.203 328.562 547.352 326.504 542.843 316.443C538.781 307.412 537.318 291.367 546.81 284.936C548.849 283.496 551.229 282.614 553.714 282.378C556.199 282.142 558.702 282.56 560.976 283.591C563.249 284.622 565.213 286.229 566.674 288.253C568.134 290.278 569.039 292.649 569.3 295.131V295.131Z" fill="#CE7A63"/>
<path d="M553.77 304.406C553.932 305.286 553.607 306.072 553.052 306.194C552.497 306.315 551.901 305.72 551.698 304.84C551.495 303.959 551.861 303.188 552.416 303.066C552.971 302.944 553.648 303.553 553.77 304.406Z" fill="#263238"/>
<path d="M543.696 306.329C543.858 307.182 543.533 307.994 542.965 308.103C542.396 308.211 541.827 307.629 541.611 306.749C541.394 305.869 541.773 305.083 542.328 304.961C542.883 304.84 543.533 305.462 543.696 306.329Z" fill="#263238"/>
<path d="M547.636 303.486C547.163 305.937 546.414 308.326 545.402 310.608C545.995 310.869 546.636 311.004 547.284 311.004C547.932 311.004 548.573 310.869 549.166 310.608L547.636 303.486Z" fill="#BA4D3C"/>
<path d="M556.004 298.056C556.087 298.056 556.169 298.027 556.234 297.975C556.343 297.901 556.418 297.787 556.443 297.657C556.468 297.528 556.442 297.394 556.369 297.284V297.284C555.912 296.629 555.305 296.093 554.598 295.72C553.892 295.348 553.106 295.151 552.307 295.145C552.173 295.155 552.048 295.218 551.96 295.319C551.871 295.42 551.826 295.552 551.833 295.686V295.686C551.837 295.754 551.854 295.82 551.883 295.881C551.912 295.943 551.953 295.997 552.003 296.043C552.053 296.088 552.112 296.123 552.176 296.145C552.24 296.168 552.307 296.178 552.375 296.174C553.012 296.167 553.641 296.318 554.206 296.613C554.771 296.908 555.253 297.339 555.611 297.866C555.655 297.929 555.714 297.979 555.783 298.012C555.851 298.046 555.927 298.061 556.004 298.056V298.056Z" fill="#263238"/>
<path d="M538.998 300.277C539.081 300.27 539.162 300.243 539.233 300.198C539.303 300.154 539.362 300.092 539.404 300.019C539.714 299.443 540.153 298.945 540.686 298.565C541.218 298.185 541.831 297.932 542.477 297.826C542.615 297.815 542.743 297.751 542.834 297.648C542.925 297.544 542.972 297.409 542.965 297.271V297.271C542.948 297.137 542.882 297.014 542.779 296.926C542.676 296.839 542.545 296.792 542.41 296.797V296.797C541.596 296.909 540.82 297.213 540.147 297.684C539.474 298.155 538.922 298.779 538.537 299.505C538.485 299.582 538.455 299.673 538.453 299.766C538.451 299.86 538.475 299.952 538.524 300.032C538.572 300.112 538.643 300.176 538.727 300.217C538.811 300.258 538.905 300.274 538.998 300.263V300.277Z" fill="#263238"/>
<path d="M555.394 313.031C555.81 312.619 556.182 312.165 556.505 311.677C556.528 311.646 556.545 311.611 556.554 311.574C556.563 311.536 556.564 311.498 556.558 311.46C556.552 311.422 556.538 311.385 556.517 311.353C556.496 311.321 556.469 311.293 556.437 311.271V311.271C556.405 311.248 556.369 311.231 556.33 311.221C556.292 311.212 556.252 311.211 556.213 311.217C556.174 311.223 556.136 311.237 556.103 311.258C556.069 311.279 556.04 311.306 556.017 311.339C555.309 312.398 554.362 313.276 553.252 313.902C552.141 314.528 550.9 314.883 549.626 314.94C549.586 314.939 549.545 314.945 549.506 314.959C549.468 314.973 549.432 314.994 549.402 315.022C549.372 315.05 549.348 315.083 549.33 315.12C549.313 315.157 549.303 315.197 549.302 315.238C549.301 315.319 549.332 315.396 549.388 315.454C549.443 315.512 549.519 315.546 549.599 315.55C551.783 315.486 553.858 314.584 555.394 313.031V313.031Z" fill="#263238"/>
<path d="M564.927 279.506C564.927 279.506 567.12 267.32 561.961 267.808C556.803 268.295 564.927 279.506 564.927 279.506Z" fill="#263238"/>
<path d="M558.008 299.573C557.377 298.789 556.526 298.212 555.565 297.914C554.604 297.617 553.576 297.614 552.613 297.905C551.65 298.196 550.796 298.768 550.16 299.547C549.524 300.327 549.136 301.279 549.044 302.281L546.269 302.958C545.814 301.778 544.935 300.811 543.804 300.247C542.673 299.683 541.372 299.562 540.156 299.908C538.94 300.254 537.898 301.042 537.234 302.118C536.57 303.194 536.333 304.479 536.568 305.721C536.803 306.962 537.494 308.071 538.505 308.83C539.517 309.588 540.775 309.941 542.033 309.818C543.291 309.696 544.458 309.108 545.304 308.169C546.151 307.23 546.615 306.009 546.607 304.745C546.62 304.592 546.62 304.438 546.607 304.284L549.126 303.675C549.237 304.393 549.501 305.079 549.9 305.687C550.299 306.294 550.823 306.809 551.438 307.197C552.052 307.585 552.742 307.837 553.462 307.936C554.182 308.035 554.915 307.979 555.611 307.771C556.308 307.564 556.952 307.209 557.5 306.732C558.048 306.255 558.487 305.666 558.789 305.004C559.09 304.343 559.246 303.625 559.247 302.898C559.248 302.171 559.093 301.453 558.793 300.791C563.925 298.787 571.182 296.553 572.563 297.42L573.294 296.269C570.83 294.698 560.959 298.462 558.008 299.573ZM541.462 308.428C540.722 308.43 539.998 308.213 539.382 307.804C538.766 307.395 538.285 306.813 538 306.13C537.715 305.448 537.639 304.696 537.781 303.97C537.924 303.244 538.279 302.577 538.801 302.053C539.323 301.529 539.989 301.172 540.714 301.026C541.44 300.881 542.192 300.954 542.875 301.237C543.559 301.519 544.143 301.998 544.555 302.613C544.966 303.228 545.185 303.951 545.185 304.691C545.182 305.678 544.789 306.625 544.092 307.324C543.395 308.024 542.45 308.421 541.462 308.428V308.428ZM554.027 306.505C553.287 306.508 552.562 306.29 551.946 305.881C551.329 305.471 550.848 304.888 550.563 304.204C550.279 303.521 550.204 302.768 550.348 302.042C550.491 301.316 550.848 300.649 551.371 300.126C551.894 299.602 552.562 299.246 553.288 299.102C554.014 298.958 554.766 299.033 555.45 299.318C556.133 299.603 556.717 300.084 557.126 300.7C557.536 301.317 557.753 302.041 557.75 302.782C557.747 303.759 557.361 304.696 556.675 305.392C555.989 306.088 555.058 306.487 554.081 306.505H554.027Z" fill="#263238"/>
<path opacity="0.2" d="M558.008 299.573C557.377 298.789 556.526 298.212 555.565 297.914C554.604 297.617 553.576 297.614 552.613 297.905C551.65 298.196 550.796 298.768 550.16 299.547C549.524 300.327 549.136 301.279 549.044 302.281L546.269 302.958C545.814 301.778 544.935 300.811 543.804 300.247C542.673 299.683 541.372 299.562 540.156 299.908C538.94 300.254 537.898 301.042 537.234 302.118C536.57 303.194 536.333 304.479 536.568 305.721C536.803 306.962 537.494 308.071 538.505 308.83C539.517 309.588 540.775 309.941 542.033 309.818C543.291 309.696 544.458 309.108 545.304 308.169C546.151 307.23 546.615 306.009 546.607 304.745C546.62 304.592 546.62 304.438 546.607 304.284L549.126 303.675C549.237 304.393 549.501 305.079 549.9 305.687C550.299 306.294 550.823 306.809 551.438 307.197C552.052 307.585 552.742 307.837 553.462 307.936C554.182 308.035 554.915 307.979 555.611 307.771C556.308 307.564 556.952 307.209 557.5 306.732C558.048 306.255 558.487 305.666 558.789 305.004C559.09 304.343 559.246 303.625 559.247 302.898C559.248 302.171 559.093 301.453 558.793 300.791C563.925 298.787 571.182 296.553 572.563 297.42L573.294 296.269C570.83 294.698 560.959 298.462 558.008 299.573ZM541.462 308.428C540.722 308.43 539.998 308.213 539.382 307.804C538.766 307.395 538.285 306.813 538 306.13C537.715 305.448 537.639 304.696 537.781 303.97C537.924 303.244 538.279 302.577 538.801 302.053C539.323 301.529 539.989 301.172 540.714 301.026C541.44 300.881 542.192 300.954 542.875 301.237C543.559 301.519 544.143 301.998 544.555 302.613C544.966 303.228 545.185 303.951 545.185 304.691C545.182 305.678 544.789 306.625 544.092 307.324C543.395 308.024 542.45 308.421 541.462 308.428V308.428ZM554.027 306.505C553.287 306.508 552.562 306.29 551.946 305.881C551.329 305.471 550.848 304.888 550.563 304.204C550.279 303.521 550.204 302.768 550.348 302.042C550.491 301.316 550.848 300.649 551.371 300.126C551.894 299.602 552.562 299.246 553.288 299.102C554.014 298.958 554.766 299.033 555.45 299.318C556.133 299.603 556.717 300.084 557.126 300.7C557.536 301.317 557.753 302.041 557.75 302.782C557.747 303.759 557.361 304.696 556.675 305.392C555.989 306.088 555.058 306.487 554.081 306.505H554.027Z" fill="white"/>
<path d="M555.164 286.845C555.164 286.845 538.144 298.868 534.516 293.872C530.887 288.876 538.456 288.456 538.456 288.456C538.456 288.456 532.011 283.92 535.423 280.332C538.835 276.744 542.965 280.332 542.965 280.332C542.965 280.332 558.59 266.724 563.911 276.934C563.911 276.934 575.759 274.578 576.584 284.15C577.41 293.723 576.584 295.199 576.584 295.199C576.584 295.199 582.854 295.971 582 298.151C581.147 300.331 576.584 298.625 576.584 298.625C576.584 298.625 583.991 304.23 580.646 305.002C577.302 305.774 568.582 303.932 566.443 296.675C564.304 289.417 566.795 288.429 566.795 288.429C566.795 288.429 546.404 296.824 555.164 286.845Z" fill="#263238"/>
<path d="M575.217 304.176C574.625 306.787 573.141 309.11 571.02 310.743C568.312 312.747 566.24 310.323 566.389 306.898C566.524 303.824 568.108 299.072 571.114 298.449C574.12 297.826 575.948 300.899 575.217 304.176Z" fill="#CE7A63"/>
<path d="M551.888 329.699C551.888 329.699 550.601 333.219 557.791 333.328C564.981 333.436 571.615 329.063 571.615 329.063C571.615 329.063 574.499 328.101 575.38 329.699C575.38 329.699 567.987 336.848 557.778 336.631C547.568 336.415 549.153 329.564 549.153 329.564C549.153 329.564 551.021 329.063 551.888 329.699Z" fill="#3A1772"/>
<path d="M319.906 155.156H154.677V571.444H319.906V155.156Z" fill="#407BFF"/>
<path opacity="0.2" d="M319.906 155.156H154.677V571.444H319.906V155.156Z" fill="white"/>
<path d="M319.906 151.514V575.154H350.343V151.514H319.906Z" fill="#407BFF"/>
<path opacity="0.3" d="M319.906 151.514V575.154H350.343V151.514H319.906Z" fill="white"/>
<path d="M125.701 151.514V575.154H156.139V151.514H125.701Z" fill="#407BFF"/>
<path opacity="0.4" d="M125.701 151.514V575.154H156.139V151.514H125.701Z" fill="white"/>
<path d="M120.529 151.514V575.154H323.629V151.514H120.529ZM316.25 158.812V234.772H127.827V158.812H316.25ZM127.827 401.273V325.327H316.25V401.273H127.827ZM316.25 408.612V484.558H127.827V408.612H316.25ZM127.827 318.029V242.07H316.25V318.029H127.827ZM127.827 567.788V491.842H316.25V567.788H127.827Z" fill="#407BFF"/>
<path opacity="0.6" d="M120.529 151.514V575.154H323.629V151.514H120.529ZM316.25 158.812V234.772H127.827V158.812H316.25ZM127.827 401.273V325.327H316.25V401.273H127.827ZM316.25 408.612V484.558H127.827V408.612H316.25ZM127.827 318.029V242.07H316.25V318.029H127.827ZM127.827 567.788V491.842H316.25V567.788H127.827Z" fill="white"/>
<path d="M254.074 175.832H247.047V234.772H254.074V175.832Z" fill="#407BFF"/>
<path opacity="0.1" d="M254.074 175.832H247.047V234.772H254.074V175.832Z" fill="white"/>
<path d="M261.088 175.832H254.061V234.772H261.088V175.832Z" fill="#407BFF"/>
<path opacity="0.4" d="M261.088 175.832H254.061V234.772H261.088V175.832Z" fill="white"/>
<path d="M247.033 179.975H232.992V234.772H247.033V179.975Z" fill="#407BFF"/>
<path opacity="0.6" d="M247.033 179.975H232.992V234.772H247.033V179.975Z" fill="white"/>
<path d="M225.965 175.832H216.893V234.772H225.965V175.832Z" fill="#407BFF"/>
<path d="M233.006 175.832H225.979V234.772H233.006V175.832Z" fill="#407BFF"/>
<path opacity="0.7" d="M233.006 175.832H225.979V234.772H233.006V175.832Z" fill="white"/>
<path d="M172.699 175.832H163.627V234.772H172.699V175.832Z" fill="#407BFF"/>
<path opacity="0.7" d="M172.699 175.832H163.627V234.772H172.699V175.832Z" fill="white"/>
<path d="M179.739 175.832H172.712V234.772H179.739V175.832Z" fill="#407BFF"/>
<path opacity="0.6" d="M179.739 175.832H172.712V234.772H179.739V175.832Z" fill="white"/>
<path d="M202.852 175.832H193.781V234.772H202.852V175.832Z" fill="#407BFF"/>
<path opacity="0.6" d="M202.852 175.832H193.781V234.772H202.852V175.832Z" fill="white"/>
<path d="M209.88 175.832H202.852V234.772H209.88V175.832Z" fill="#407BFF"/>
<path opacity="0.1" d="M209.88 175.832H202.852V234.772H209.88V175.832Z" fill="black"/>
<path d="M163.627 177.227H149.586V234.772H163.627V177.227Z" fill="#407BFF"/>
<path opacity="0.1" d="M163.627 177.227H149.586V234.772H163.627V177.227Z" fill="white"/>
<path d="M149.586 177.227H142.559V234.772H149.586V177.227Z" fill="#407BFF"/>
<path opacity="0.6" d="M149.586 177.227H142.559V234.772H149.586V177.227Z" fill="white"/>
<path d="M193.781 177.227H184.411V234.772H193.781V177.227Z" fill="#407BFF"/>
<path opacity="0.1" d="M193.781 177.227H184.411V234.772H193.781V177.227Z" fill="white"/>
<path d="M184.411 177.227H179.726V234.772H184.411V177.227Z" fill="#407BFF"/>
<path opacity="0.3" d="M184.411 177.227H179.726V234.772H184.411V177.227Z" fill="white"/>
<path d="M216.893 179.975H202.852V234.772H216.893V179.975Z" fill="#407BFF"/>
<path opacity="0.1" d="M216.893 179.975H202.852V234.772H216.893V179.975Z" fill="white"/>
<path d="M291.228 175.832H282.156V234.772H291.228V175.832Z" fill="#407BFF"/>
<path opacity="0.3" d="M291.228 175.832H282.156V234.772H291.228V175.832Z" fill="white"/>
<path d="M298.255 175.832H291.228V234.772H298.255V175.832Z" fill="#407BFF"/>
<path opacity="0.2" d="M298.255 175.832H291.228V234.772H298.255V175.832Z" fill="white"/>
<path d="M282.156 177.227H268.115V234.772H282.156V177.227Z" fill="#407BFF"/>
<path opacity="0.1" d="M282.156 177.227H268.115V234.772H282.156V177.227Z" fill="white"/>
<path d="M268.115 177.227H261.088V234.772H268.115V177.227Z" fill="#407BFF"/>
<path opacity="0.6" d="M268.115 177.227H261.088V234.772H268.115V177.227Z" fill="white"/>
<path d="M312.31 177.227H302.94V234.772H312.31V177.227Z" fill="#407BFF"/>
<path opacity="0.1" d="M312.31 177.227H302.94V234.772H312.31V177.227Z" fill="white"/>
<path d="M302.94 177.227H298.255V234.772H302.94V177.227Z" fill="#407BFF"/>
<path opacity="0.6" d="M302.94 177.227H298.255V234.772H302.94V177.227Z" fill="white"/>
<path d="M210.232 259.279H203.38V318.043H210.232V259.279Z" fill="#407BFF"/>
<path opacity="0.1" d="M210.232 259.279H203.38V318.043H210.232V259.279Z" fill="white"/>
<path d="M203.367 259.279H196.516V318.043H203.367V259.279Z" fill="#407BFF"/>
<path opacity="0.4" d="M203.367 259.279H196.516V318.043H203.367V259.279Z" fill="white"/>
<path d="M223.947 263.409H210.231V318.043H223.947V263.409Z" fill="#407BFF"/>
<path opacity="0.6" d="M223.947 263.409H210.231V318.043H223.947V263.409Z" fill="white"/>
<path d="M239.654 259.279H230.799V318.043H239.654V259.279Z" fill="#407BFF"/>
<path d="M230.799 259.279H223.948V318.043H230.799V259.279Z" fill="#407BFF"/>
<path opacity="0.1" d="M230.799 259.279H223.948V318.043H230.799V259.279Z" fill="black"/>
<path d="M291.661 259.279H282.806V318.043H291.661V259.279Z" fill="#407BFF"/>
<path opacity="0.1" d="M291.661 259.279H282.806V318.043H291.661V259.279Z" fill="black"/>
<path d="M282.806 259.279H275.955V318.043H282.806V259.279Z" fill="#407BFF"/>
<path opacity="0.6" d="M282.806 259.279H275.955V318.043H282.806V259.279Z" fill="white"/>
<path d="M262.225 259.279H253.37V318.043H262.225V259.279Z" fill="#407BFF"/>
<path opacity="0.6" d="M262.225 259.279H253.37V318.043H262.225V259.279Z" fill="white"/>
<path d="M253.37 259.279H246.519V318.043H253.37V259.279Z" fill="#407BFF"/>
<path opacity="0.1" d="M253.37 259.279H246.519V318.043H253.37V259.279Z" fill="black"/>
<path d="M305.377 260.674H291.661V318.043H305.377V260.674Z" fill="#407BFF"/>
<path opacity="0.1" d="M305.377 260.674H291.661V318.043H305.377V260.674Z" fill="white"/>
<path d="M312.228 260.674H305.377V318.043H312.228V260.674Z" fill="#407BFF"/>
<path opacity="0.6" d="M312.228 260.674H305.377V318.043H312.228V260.674Z" fill="white"/>
<path d="M271.378 260.674H262.239V318.043H271.378V260.674Z" fill="#407BFF"/>
<path opacity="0.1" d="M271.378 260.674H262.239V318.043H271.378V260.674Z" fill="white"/>
<path d="M275.955 260.674H271.378V318.043H275.955V260.674Z" fill="#407BFF"/>
<path opacity="0.3" d="M275.955 260.674H271.378V318.043H275.955V260.674Z" fill="white"/>
<path d="M253.383 263.409H239.667V318.043H253.383V263.409Z" fill="#407BFF"/>
<path opacity="0.1" d="M253.383 263.409H239.667V318.043H253.383V263.409Z" fill="white"/>
<path d="M175.948 259.279H167.093V318.043H175.948V259.279Z" fill="#407BFF"/>
<path opacity="0.1" d="M175.948 259.279H167.093V318.043H175.948V259.279Z" fill="white"/>
<path d="M167.079 259.279H160.228V318.043H167.079V259.279Z" fill="#407BFF"/>
<path opacity="0.2" d="M167.079 259.279H160.228V318.043H167.079V259.279Z" fill="white"/>
<path d="M189.664 260.674H175.948V318.043H189.664V260.674Z" fill="#407BFF"/>
<path opacity="0.1" d="M189.664 260.674H175.948V318.043H189.664V260.674Z" fill="white"/>
<path d="M196.516 260.674H189.664V318.043H196.516V260.674Z" fill="#407BFF"/>
<path opacity="0.6" d="M196.516 260.674H189.664V318.043H196.516V260.674Z" fill="white"/>
<path d="M155.665 260.674H146.526V318.043H155.665V260.674Z" fill="#407BFF"/>
<path opacity="0.1" d="M155.665 260.674H146.526V318.043H155.665V260.674Z" fill="white"/>
<path d="M160.242 260.674H155.665V318.043H160.242V260.674Z" fill="#407BFF"/>
<path opacity="0.6" d="M160.242 260.674H155.665V318.043H160.242V260.674Z" fill="white"/>
<path d="M255.333 426.349H248.482V484.531H255.333V426.349Z" fill="#407BFF"/>
<path opacity="0.1" d="M255.333 426.349H248.482V484.531H255.333V426.349Z" fill="white"/>
<path d="M262.185 426.349H255.333V484.531H262.185V426.349Z" fill="#407BFF"/>
<path opacity="0.4" d="M262.185 426.349H255.333V484.531H262.185V426.349Z" fill="white"/>
<path d="M248.482 430.438H234.766V484.531H248.482V430.438Z" fill="#407BFF"/>
<path opacity="0.6" d="M248.482 430.438H234.766V484.531H248.482V430.438Z" fill="white"/>
<path d="M227.901 426.349H219.046V484.531H227.901V426.349Z" fill="#407BFF"/>
<path d="M234.766 426.349H227.915V484.531H234.766V426.349Z" fill="#407BFF"/>
<path opacity="0.6" d="M234.766 426.349H227.915V484.531H234.766V426.349Z" fill="white"/>
<path d="M175.894 426.349H167.039V484.531H175.894V426.349Z" fill="#407BFF"/>
<path opacity="0.3" d="M175.894 426.349H167.039V484.531H175.894V426.349Z" fill="white"/>
<path d="M182.759 426.349H175.908V484.531H182.759V426.349Z" fill="#407BFF"/>
<path opacity="0.6" d="M182.759 426.349H175.908V484.531H182.759V426.349Z" fill="white"/>
<path d="M205.33 426.349H196.475V484.531H205.33V426.349Z" fill="#407BFF"/>
<path opacity="0.6" d="M205.33 426.349H196.475V484.531H205.33V426.349Z" fill="white"/>
<path d="M212.181 426.349H205.33V484.531H212.181V426.349Z" fill="#407BFF"/>
<path opacity="0.1" d="M212.181 426.349H205.33V484.531H212.181V426.349Z" fill="black"/>
<path d="M167.052 427.73H153.336V484.544H167.052V427.73Z" fill="#407BFF"/>
<path opacity="0.1" d="M167.052 427.73H153.336V484.544H167.052V427.73Z" fill="white"/>
<path d="M153.323 427.73H146.472V484.544H153.323V427.73Z" fill="#407BFF"/>
<path opacity="0.6" d="M153.323 427.73H146.472V484.544H153.323V427.73Z" fill="white"/>
<path d="M196.475 427.73H187.335V484.544H196.475V427.73Z" fill="#407BFF"/>
<path opacity="0.1" d="M196.475 427.73H187.335V484.544H196.475V427.73Z" fill="white"/>
<path d="M187.335 427.73H182.759V484.544H187.335V427.73Z" fill="#407BFF"/>
<path opacity="0.3" d="M187.335 427.73H182.759V484.544H187.335V427.73Z" fill="white"/>
<path d="M219.046 430.438H205.33V484.531H219.046V430.438Z" fill="#407BFF"/>
<path opacity="0.1" d="M219.046 430.438H205.33V484.531H219.046V430.438Z" fill="white"/>
<path d="M291.621 426.349H282.765V484.531H291.621V426.349Z" fill="#407BFF"/>
<path opacity="0.1" d="M291.621 426.349H282.765V484.531H291.621V426.349Z" fill="black"/>
<path d="M298.472 426.349H291.621V484.531H298.472V426.349Z" fill="#407BFF"/>
<path opacity="0.2" d="M298.472 426.349H291.621V484.531H298.472V426.349Z" fill="white"/>
<path d="M282.765 427.73H269.049V484.544H282.765V427.73Z" fill="#407BFF"/>
<path opacity="0.1" d="M282.765 427.73H269.049V484.544H282.765V427.73Z" fill="white"/>
<path d="M269.049 427.73H262.198V484.544H269.049V427.73Z" fill="#407BFF"/>
<path opacity="0.6" d="M269.049 427.73H262.198V484.544H269.049V427.73Z" fill="white"/>
<path d="M312.188 427.73H303.048V484.544H312.188V427.73Z" fill="#407BFF"/>
<path opacity="0.1" d="M312.188 427.73H303.048V484.544H312.188V427.73Z" fill="white"/>
<path d="M303.062 427.73H298.485V484.544H303.062V427.73Z" fill="#407BFF"/>
<path opacity="0.6" d="M303.062 427.73H298.485V484.544H303.062V427.73Z" fill="white"/>
<path d="M255.374 510.365H248.523V567.828H255.374V510.365Z" fill="#407BFF"/>
<path opacity="0.1" d="M255.374 510.365H248.523V567.828H255.374V510.365Z" fill="white"/>
<path d="M262.239 510.365H255.387V567.828H262.239V510.365Z" fill="#407BFF"/>
<path opacity="0.4" d="M262.239 510.365H255.387V567.828H262.239V510.365Z" fill="white"/>
<path d="M248.523 514.4H234.807V567.815H248.523V514.4Z" fill="#407BFF"/>
<path opacity="0.6" d="M248.523 514.4H234.807V567.815H248.523V514.4Z" fill="white"/>
<path d="M227.955 510.365H219.1V567.828H227.955V510.365Z" fill="#407BFF"/>
<path d="M234.807 510.365H227.956V567.828H234.807V510.365Z" fill="#407BFF"/>
<path opacity="0.1" d="M234.807 510.365H227.956V567.828H234.807V510.365Z" fill="black"/>
<path d="M175.948 510.365H167.093V567.828H175.948V510.365Z" fill="#407BFF"/>
<path opacity="0.4" d="M175.948 510.365H167.093V567.828H175.948V510.365Z" fill="white"/>
<path d="M182.799 510.365H175.948V567.828H182.799V510.365Z" fill="#407BFF"/>
<path opacity="0.6" d="M182.799 510.365H175.948V567.828H182.799V510.365Z" fill="white"/>
<path d="M205.371 510.365H196.516V567.828H205.371V510.365Z" fill="#407BFF"/>
<path opacity="0.6" d="M205.371 510.365H196.516V567.828H205.371V510.365Z" fill="white"/>
<path d="M212.236 510.365H205.384V567.828H212.236V510.365Z" fill="#407BFF"/>
<path opacity="0.1" d="M212.236 510.365H205.384V567.828H212.236V510.365Z" fill="black"/>
<path d="M167.093 511.719H153.377V567.815H167.093V511.719Z" fill="#407BFF"/>
<path opacity="0.1" d="M167.093 511.719H153.377V567.815H167.093V511.719Z" fill="white"/>
<path d="M153.377 511.719H146.526V567.815H153.377V511.719Z" fill="#407BFF"/>
<path opacity="0.6" d="M153.377 511.719H146.526V567.815H153.377V511.719Z" fill="white"/>
<path d="M196.515 511.719H187.376V567.815H196.515V511.719Z" fill="#407BFF"/>
<path opacity="0.1" d="M196.515 511.719H187.376V567.815H196.515V511.719Z" fill="white"/>
<path d="M187.389 511.719H182.813V567.815H187.389V511.719Z" fill="#407BFF"/>
<path opacity="0.3" d="M187.389 511.719H182.813V567.815H187.389V511.719Z" fill="white"/>
<path d="M219.1 514.4H205.384V567.815H219.1V514.4Z" fill="#407BFF"/>
<path opacity="0.1" d="M219.1 514.4H205.384V567.815H219.1V514.4Z" fill="white"/>
<path d="M291.661 510.365H282.806V567.828H291.661V510.365Z" fill="#407BFF"/>
<path opacity="0.1" d="M291.661 510.365H282.806V567.828H291.661V510.365Z" fill="black"/>
<path d="M298.526 510.365H291.675V567.828H298.526V510.365Z" fill="#407BFF"/>
<path opacity="0.2" d="M298.526 510.365H291.675V567.828H298.526V510.365Z" fill="white"/>
<path d="M282.806 511.719H269.09V567.815H282.806V511.719Z" fill="#407BFF"/>
<path opacity="0.1" d="M282.806 511.719H269.09V567.815H282.806V511.719Z" fill="white"/>
<path d="M269.09 511.719H262.239V567.815H269.09V511.719Z" fill="#407BFF"/>
<path opacity="0.6" d="M269.09 511.719H262.239V567.815H269.09V511.719Z" fill="white"/>
<path d="M312.228 511.719H303.089V567.815H312.228V511.719Z" fill="#407BFF"/>
<path opacity="0.1" d="M312.228 511.719H303.089V567.815H312.228V511.719Z" fill="white"/>
<path d="M303.102 511.719H298.526V567.815H303.102V511.719Z" fill="#407BFF"/>
<path opacity="0.6" d="M303.102 511.719H298.526V567.815H303.102V511.719Z" fill="white"/>
<path d="M206.779 341.548H199.698V401.273H206.779V341.548Z" fill="#407BFF"/>
<path opacity="0.1" d="M206.779 341.548H199.698V401.273H206.779V341.548Z" fill="white"/>
<path d="M199.684 341.548H192.603V401.273H199.684V341.548Z" fill="#407BFF"/>
<path opacity="0.4" d="M199.684 341.548H192.603V401.273H199.684V341.548Z" fill="white"/>
<path d="M220.955 345.745H206.779V401.273H220.955V345.745Z" fill="#407BFF"/>
<path opacity="0.6" d="M220.955 345.745H206.779V401.273H220.955V345.745Z" fill="white"/>
<path d="M237.217 341.548H228.05V401.273H237.217V341.548Z" fill="#407BFF"/>
<path d="M228.036 341.548H220.955V401.273H228.036V341.548Z" fill="#407BFF"/>
<path opacity="0.1" d="M228.036 341.548H220.955V401.273H228.036V341.548Z" fill="black"/>
<path d="M290.984 341.548H281.818V401.273H290.984V341.548Z" fill="#407BFF"/>
<path opacity="0.1" d="M290.984 341.548H281.818V401.273H290.984V341.548Z" fill="black"/>
<path d="M281.804 341.548H274.723V401.273H281.804V341.548Z" fill="#407BFF"/>
<path opacity="0.6" d="M281.804 341.548H274.723V401.273H281.804V341.548Z" fill="white"/>
<path d="M260.546 341.548H251.38V401.273H260.546V341.548Z" fill="#407BFF"/>
<path opacity="0.6" d="M260.546 341.548H251.38V401.273H260.546V341.548Z" fill="white"/>
<path d="M251.38 341.548H244.298V401.273H251.38V341.548Z" fill="#407BFF"/>
<path opacity="0.1" d="M251.38 341.548H244.298V401.273H251.38V341.548Z" fill="black"/>
<path d="M305.147 342.97H290.97V401.287H305.147V342.97Z" fill="#407BFF"/>
<path opacity="0.1" d="M305.147 342.97H290.97V401.287H305.147V342.97Z" fill="white"/>
<path d="M312.228 342.97H305.147V401.287H312.228V342.97Z" fill="#407BFF"/>
<path opacity="0.6" d="M312.228 342.97H305.147V401.287H312.228V342.97Z" fill="white"/>
<path d="M269.997 342.97H260.546V401.287H269.997V342.97Z" fill="#407BFF"/>
<path opacity="0.1" d="M269.997 342.97H260.546V401.287H269.997V342.97Z" fill="white"/>
<path d="M274.723 342.97H269.997V401.287H274.723V342.97Z" fill="#407BFF"/>
<path opacity="0.3" d="M274.723 342.97H269.997V401.287H274.723V342.97Z" fill="white"/>
<path d="M251.38 345.745H237.203V401.273H251.38V345.745Z" fill="#407BFF"/>
<path opacity="0.1" d="M251.38 345.745H237.203V401.273H251.38V345.745Z" fill="white"/>
<path d="M171.345 341.548H162.178V401.273H171.345V341.548Z" fill="#407BFF"/>
<path opacity="0.2" d="M171.345 341.548H162.178V401.273H171.345V341.548Z" fill="white"/>
<path d="M162.178 341.548H155.097V401.273H162.178V341.548Z" fill="#407BFF"/>
<path opacity="0.2" d="M162.178 341.548H155.097V401.273H162.178V341.548Z" fill="white"/>
<path d="M185.521 342.97H171.345V401.287H185.521V342.97Z" fill="#407BFF"/>
<path opacity="0.1" d="M185.521 342.97H171.345V401.287H185.521V342.97Z" fill="white"/>
<path d="M192.602 342.97H185.521V401.287H192.602V342.97Z" fill="#407BFF"/>
<path opacity="0.6" d="M192.602 342.97H185.521V401.287H192.602V342.97Z" fill="white"/>
<path d="M150.371 342.97H140.92V401.287H150.371V342.97Z" fill="#407BFF"/>
<path opacity="0.1" d="M150.371 342.97H140.92V401.287H150.371V342.97Z" fill="white"/>
<path d="M155.097 342.97H150.371V401.287H155.097V342.97Z" fill="#407BFF"/>
<path opacity="0.6" d="M155.097 342.97H150.371V401.287H155.097V342.97Z" fill="white"/>
<path d="M269.28 107.617H159.687V143.891H269.28V107.617Z" fill="#407BFF"/>
<path d="M163.072 89H161.718V107.617H163.072V89Z" fill="#407BFF"/>
<path d="M268.765 89H267.411V107.617H268.765V89Z" fill="#407BFF"/>
<g opacity="0.7">
<path opacity="0.7" d="M267.1 107.617H159.687V141.508H267.1V107.617Z" fill="white"/>
</g>
<path d="M254.507 114.157H178.223V120.751H254.507V114.157Z" fill="#407BFF"/>
<path d="M254.521 125.761H238.165V128.334H254.521V125.761Z" fill="#407BFF"/>
<path d="M254.521 133.33H221.7V135.903H254.521V133.33Z" fill="#407BFF"/>
<path opacity="0.2" d="M135.815 575.032C136.331 575.154 136.868 575.157 137.385 575.039C137.901 574.921 138.384 574.687 138.796 574.353C139.208 574.02 139.538 573.596 139.761 573.115C139.983 572.635 140.093 572.109 140.081 571.579V564.89H227.359V570.157C227.424 571.338 227.886 572.462 228.67 573.347C229.454 574.232 230.514 574.826 231.679 575.032C232.194 575.154 232.731 575.157 233.248 575.039C233.765 574.921 234.248 574.687 234.659 574.353C235.071 574.02 235.401 573.596 235.624 573.115C235.847 572.635 235.956 572.109 235.944 571.579L234.319 239.714C234.258 238.533 233.8 237.407 233.018 236.519C232.236 235.632 231.177 235.035 230.013 234.826C229.497 234.704 228.96 234.702 228.442 234.819C227.925 234.937 227.441 235.171 227.029 235.505C226.616 235.838 226.284 236.261 226.06 236.742C225.836 237.222 225.725 237.748 225.735 238.279V243.586H138.483V239.714C138.424 238.532 137.967 237.405 137.185 236.517C136.402 235.629 135.342 235.033 134.177 234.826C133.661 234.704 133.125 234.701 132.608 234.819C132.091 234.936 131.608 235.171 131.196 235.504C130.785 235.838 130.455 236.261 130.232 236.742C130.009 237.223 129.9 237.749 129.912 238.279L131.537 570.157C131.595 571.334 132.049 572.456 132.826 573.341C133.603 574.226 134.657 574.822 135.815 575.032ZM226.994 495.268H139.715L139.444 439.131H226.723L226.994 495.268ZM138.821 313.25H226.1L226.385 369.4H139.092L138.821 313.25ZM226.412 376.116L226.682 432.253H139.404L139.133 376.116H226.412ZM225.802 250.289L226.073 306.439H138.794L138.51 250.289H225.802ZM140.026 558.134L139.742 502.038H226.994L227.265 558.188L140.026 558.134Z" fill="black"/>
<path d="M76.9166 575.032C78.0224 575.22 79.1579 574.963 80.0741 574.316C80.9904 573.668 81.6127 572.684 81.8046 571.579L82.9555 564.89H170.234L169.327 570.157C169.139 571.263 169.397 572.399 170.046 573.314C170.695 574.23 171.681 574.85 172.787 575.039C173.893 575.227 175.028 574.969 175.944 574.32C176.859 573.671 177.479 572.685 177.668 571.579L234.536 239.714C234.726 238.609 234.47 237.475 233.824 236.559C233.177 235.644 232.194 235.023 231.09 234.833C229.986 234.642 228.851 234.898 227.936 235.545C227.02 236.191 226.399 237.174 226.209 238.278L225.301 243.586H138.036L138.7 239.714C138.824 238.637 138.532 237.554 137.883 236.686C137.233 235.819 136.276 235.233 135.209 235.049C134.141 234.865 133.043 235.098 132.141 235.698C131.239 236.299 130.601 237.222 130.359 238.278L73.491 570.157C73.3956 570.702 73.4086 571.261 73.5292 571.801C73.6497 572.341 73.8755 572.852 74.1937 573.304C74.5118 573.757 74.916 574.143 75.3833 574.439C75.8505 574.735 76.3715 574.937 76.9166 575.032V575.032ZM182.177 495.146H94.8977L104.525 439.009H191.79L182.177 495.146ZM126.08 313.249H213.373L203.746 369.346H116.467L126.08 313.249ZM202.622 376.116L193.009 432.252H105.676L115.303 376.116H202.622ZM224.191 250.288L214.564 306.439H127.245L136.872 250.288H224.191ZM84.1064 558.134L93.7333 502.038H180.958L171.345 558.188L84.1064 558.134Z" fill="#263238"/>
<path opacity="0.2" d="M76.9166 575.032C78.0224 575.22 79.1579 574.963 80.0741 574.316C80.9904 573.668 81.6127 572.684 81.8046 571.579L82.9555 564.89H170.234L169.327 570.157C169.139 571.263 169.397 572.399 170.046 573.314C170.695 574.23 171.681 574.85 172.787 575.039C173.893 575.227 175.028 574.969 175.944 574.32C176.859 573.671 177.479 572.685 177.668 571.579L234.536 239.714C234.726 238.609 234.47 237.475 233.824 236.559C233.177 235.644 232.194 235.023 231.09 234.833C229.986 234.642 228.851 234.898 227.936 235.545C227.02 236.191 226.399 237.174 226.209 238.278L225.301 243.586H138.036L138.7 239.714C138.824 238.637 138.532 237.554 137.883 236.686C137.233 235.819 136.276 235.233 135.209 235.049C134.141 234.865 133.043 235.098 132.141 235.698C131.239 236.299 130.601 237.222 130.359 238.278L73.491 570.157C73.3956 570.702 73.4086 571.261 73.5292 571.801C73.6497 572.341 73.8755 572.852 74.1937 573.304C74.5118 573.757 74.916 574.143 75.3833 574.439C75.8505 574.735 76.3715 574.937 76.9166 575.032V575.032ZM182.177 495.146H94.8977L104.525 439.009H191.79L182.177 495.146ZM126.08 313.249H213.373L203.746 369.346H116.467L126.08 313.249ZM202.622 376.116L193.009 432.252H105.676L115.303 376.116H202.622ZM224.191 250.288L214.564 306.439H127.245L136.872 250.288H224.191ZM84.1064 558.134L93.7333 502.038H180.958L171.345 558.188L84.1064 558.134Z" fill="white"/>
<path d="M247.602 263.395H218.41C217.691 263.395 217.003 263.11 216.495 262.602C215.987 262.094 215.702 261.405 215.702 260.687V224.346C215.702 225.064 215.987 225.753 216.495 226.261C217.003 226.769 217.691 227.054 218.41 227.054H247.602V263.395Z" fill="#407BFF"/>
<path opacity="0.3" d="M247.602 263.395H218.41C217.691 263.395 217.003 263.11 216.495 262.602C215.987 262.094 215.702 261.405 215.702 260.687V224.346C215.702 225.064 215.987 225.753 216.495 226.261C217.003 226.769 217.691 227.054 218.41 227.054H247.602V263.395Z" fill="black"/>
<path d="M247.602 227.081H218.41C217.691 227.081 217.003 226.796 216.495 226.288C215.987 225.78 215.702 225.091 215.702 224.373C215.702 223.655 215.987 222.966 216.495 222.458C217.003 221.95 217.691 221.665 218.41 221.665H247.602V227.081Z" fill="#263238"/>
<path opacity="0.5" d="M247.602 227.081H218.41C217.691 227.081 217.003 226.796 216.495 226.288C215.987 225.78 215.702 225.091 215.702 224.373C215.702 223.655 215.987 222.966 216.495 222.458C217.003 221.95 217.691 221.665 218.41 221.665H247.602V227.081Z" fill="white"/>
<path d="M215.674 224.346C215.674 225.064 215.96 225.753 216.468 226.261C216.975 226.768 217.664 227.054 218.382 227.054H247.575V226.106H218.409C217.935 226.106 217.481 225.918 217.146 225.583C216.81 225.247 216.622 224.793 216.622 224.319C216.622 223.845 216.81 223.39 217.146 223.055C217.481 222.72 217.935 222.531 218.409 222.531H247.602V221.584H218.409C218.047 221.58 217.687 221.649 217.352 221.787C217.017 221.925 216.713 222.129 216.458 222.386C216.202 222.644 216.002 222.95 215.867 223.287C215.733 223.623 215.667 223.983 215.674 224.346Z" fill="#407BFF"/>
<path d="M241.13 234.893H222.16V246.903H241.13V234.893Z" fill="#407BFF"/>
<path opacity="0.5" d="M241.13 234.893H222.16V246.903H241.13V234.893Z" fill="white"/>
<path d="M75.4947 448.555L68.9143 466.834L79.0558 470.76L86.9767 453.903L75.4947 448.555Z" fill="#FF8B7B"/>
<path d="M80.0985 471.64C80.055 471.61 80.0213 471.569 80.0013 471.52C79.9814 471.471 79.9761 471.417 79.9862 471.366C79.9962 471.314 80.0212 471.266 80.058 471.228C80.0948 471.191 80.1418 471.164 80.1933 471.153C80.3828 471.153 84.8781 470.368 86.4758 471.518C86.6243 471.62 86.7511 471.75 86.8488 471.901C86.9464 472.052 87.013 472.221 87.0445 472.399C87.104 472.6 87.0994 472.815 87.0315 473.014C86.9636 473.213 86.8357 473.386 86.6654 473.509C85.5189 473.815 84.3001 473.689 83.2398 473.157C82.1488 472.748 81.0973 472.24 80.0985 471.64V471.64ZM81.0328 471.64C82.9284 472.615 85.6093 473.59 86.3675 473.089C86.4623 473.089 86.5842 472.9 86.5165 472.52C86.5017 472.408 86.461 472.301 86.3975 472.207C86.3341 472.113 86.2496 472.035 86.1509 471.979C86.0064 471.882 85.8521 471.8 85.6905 471.735C84.1592 471.404 82.5793 471.362 81.0328 471.613V471.64Z" fill="#407BFF"/>
<path d="M79.963 471.586C79.9405 471.545 79.9287 471.498 79.9287 471.451C79.9287 471.404 79.9405 471.357 79.963 471.315C79.963 471.18 81.317 468.418 83.1449 467.809C83.3976 467.719 83.6656 467.682 83.9331 467.698C84.2005 467.714 84.462 467.784 84.702 467.903C85.379 468.228 85.4602 468.662 85.379 468.959C85.1624 470.232 81.7503 471.6 80.2744 471.668C80.258 471.677 80.2393 471.682 80.2203 471.682C80.2013 471.682 80.1826 471.677 80.1661 471.668C80.1286 471.668 80.0913 471.661 80.0564 471.647C80.0216 471.633 79.9898 471.613 79.963 471.586V471.586ZM84.3364 468.323C84.0187 468.199 83.6657 468.199 83.348 468.323C82.2204 468.942 81.3051 469.885 80.7213 471.031C82.3325 470.747 84.6749 469.555 84.878 468.81C84.878 468.743 84.878 468.553 84.4854 468.35H84.3364V468.323Z" fill="#407BFF"/>
<path d="M79.5704 469.758L67.9666 465.48C67.755 465.401 67.5226 465.397 67.3083 465.468C67.094 465.539 66.9106 465.682 66.7887 465.872L61.1831 474.538C61.0639 474.719 60.9816 474.922 60.9409 475.135C60.9002 475.349 60.9019 475.568 60.9459 475.78C60.99 475.993 61.0754 476.195 61.1974 476.374C61.3194 476.553 61.4756 476.707 61.657 476.826C61.7533 476.894 61.858 476.948 61.9684 476.989C66.1794 478.465 69.9841 479.629 75.1835 481.565C81.3306 483.853 79.4892 484.002 86.6789 486.792C91.0117 488.457 93.6385 483.813 91.8918 482.879C83.8355 478.681 83.9032 475.811 81.7774 471.573C81.2858 470.721 80.5015 470.076 79.5704 469.758Z" fill="#263238"/>
<path opacity="0.2" d="M72.3401 457.329L82.9825 462.406L86.9768 453.903L75.4949 448.555L72.3401 457.329Z" fill="#263238"/>
<path d="M136.181 466.062L137.928 485.411L148.787 484.679L148.841 466.062H136.181Z" fill="#FF8B7B"/>
<path d="M150.655 484.354C150.602 484.344 150.552 484.318 150.514 484.28C150.475 484.241 150.449 484.192 150.439 484.138C150.426 484.084 150.43 484.027 150.452 483.975C150.474 483.924 150.512 483.881 150.561 483.853C150.723 483.745 154.623 481.349 156.505 481.809C156.682 481.845 156.849 481.917 156.998 482.019C157.147 482.122 157.274 482.253 157.371 482.405C157.493 482.575 157.558 482.778 157.558 482.987C157.558 483.196 157.493 483.399 157.371 483.569C156.428 484.291 155.253 484.643 154.067 484.558C152.927 484.581 151.786 484.513 150.655 484.354V484.354ZM151.522 483.962C153.634 484.151 156.491 484.029 156.938 483.271C156.938 483.176 157.073 483.014 156.857 482.689C156.8 482.592 156.722 482.51 156.628 482.449C156.534 482.387 156.427 482.349 156.315 482.337C156.145 482.31 155.971 482.31 155.801 482.337C154.287 482.612 152.837 483.163 151.522 483.962Z" fill="#407BFF"/>
<path d="M150.52 484.341C150.478 484.319 150.444 484.285 150.42 484.245C150.396 484.204 150.384 484.158 150.385 484.111C150.385 483.962 150.588 480.902 151.996 479.656C152.195 479.477 152.428 479.339 152.682 479.25C152.935 479.162 153.204 479.125 153.472 479.142C154.216 479.142 154.46 479.561 154.501 479.873C154.785 481.132 152.145 483.691 150.818 484.341H150.696C150.639 484.361 150.577 484.361 150.52 484.341V484.341ZM153.309 479.656C152.968 479.672 152.642 479.806 152.388 480.035C151.59 481.044 151.117 482.272 151.034 483.556C152.388 482.676 154.135 480.699 154.027 479.927C154.027 479.859 154.027 479.67 153.485 479.643L153.309 479.656Z" fill="#407BFF"/>
<path d="M149.451 482.811L137.075 483.258C136.85 483.267 136.635 483.352 136.465 483.5C136.295 483.647 136.181 483.849 136.141 484.07L134.259 494.212C134.218 494.428 134.221 494.65 134.267 494.865C134.313 495.081 134.402 495.284 134.528 495.465C134.654 495.645 134.815 495.798 135.001 495.916C135.188 496.033 135.395 496.112 135.613 496.148H135.965C140.419 495.904 144.373 495.525 149.924 495.335C156.478 495.105 154.839 495.945 162.544 495.782C167.188 495.674 167.851 490.366 165.875 490.177C156.83 489.364 155.801 486.683 152.213 483.583C151.416 482.998 150.434 482.724 149.451 482.811V482.811Z" fill="#263238"/>
<path opacity="0.2" d="M148.841 466.062H136.181L137.102 476.163L148.814 475.838L148.841 466.062Z" fill="#263238"/>
<path d="M126.866 286.752C126.866 286.752 107.449 299.533 110.618 337.134L107.382 379.731C107.382 379.731 88.1277 392.648 72.7869 452.17C76.7705 455.315 81.3906 457.556 86.3269 458.737L132.634 387.896L149.816 314.143L151.82 289.595L126.866 286.752Z" fill="#263238"/>
<path opacity="0.4" d="M141.177 351.08L134.191 324L123.061 318.517C123.061 318.517 123.061 371.323 128.057 394.882L132.62 387.896L141.177 351.08Z" fill="black"/>
<path d="M116.806 241.122C116.806 241.122 102.832 258.643 106.623 266.13C110.415 273.618 122.343 274.349 122.343 274.349C122.771 275.195 123.401 275.921 124.179 276.462C124.957 277.003 125.857 277.343 126.798 277.45L129.154 266.618C128.341 266.179 127.427 265.964 126.503 265.995C125.58 266.026 124.682 266.302 123.9 266.794L116.088 262.055L126.852 247.797L116.806 241.122Z" fill="#FF8B7B"/>
<path d="M136.736 229.031C136.736 229.031 125.904 229.437 120.082 234.365C114.26 239.294 113.312 242.219 113.312 242.219C113.312 242.219 117.171 247.824 128.666 250.857L136.736 229.031Z" fill="#3A1772"/>
<path opacity="0.1" d="M128.68 250.857L133.026 239.077L128.355 234.284C125.471 238.698 123.658 243.724 123.061 248.962C124.885 249.729 126.763 250.363 128.68 250.857Z" fill="black"/>
<path d="M131.483 286.752C131.483 286.752 115.465 304.354 125.268 338.61L132.214 381.708C132.214 381.708 123.44 422.747 134.218 471.532C139.645 472.293 145.16 472.17 150.547 471.167L160.567 379.311L165.577 291.504L131.483 286.752Z" fill="#263238"/>
<path d="M142.315 228.408C142.315 228.408 148.232 227.812 148.137 216.939C148.137 216.939 153.553 214.435 157.127 217.657C160.702 220.88 153.932 228.367 158.333 231.522C158.333 231.522 154.474 234.122 142.315 228.408Z" fill="#FF8B7B"/>
<path d="M168.19 201.68C168.19 200.949 168.677 200.394 169.151 200.421C169.625 200.448 169.963 201.084 169.909 201.775C169.855 202.465 169.435 203.129 168.948 203.034C168.461 202.939 168.136 202.411 168.19 201.68Z" fill="#263238"/>
<path d="M168.691 202.993L172.536 208.071C171.939 208.521 171.245 208.826 170.509 208.96C169.773 209.094 169.016 209.054 168.298 208.843L168.691 202.993Z" fill="#FF5652"/>
<path d="M143.046 200.543C143.479 209.75 143.479 213.663 148.056 218.442C155.097 223.344 166.186 223.087 168.501 213.934C170.586 205.688 169.517 192.039 160.553 188.208C158.58 187.366 156.424 187.043 154.291 187.269C152.157 187.495 150.117 188.262 148.363 189.498C146.61 190.733 145.201 192.396 144.27 194.329C143.339 196.262 142.918 198.401 143.046 200.543V200.543Z" fill="#FF8B7B"/>
<path d="M166.822 199.527C166.893 199.542 166.966 199.542 167.036 199.525C167.106 199.509 167.172 199.477 167.228 199.432C167.622 199.07 168.096 198.806 168.612 198.663C169.127 198.519 169.669 198.5 170.194 198.606C170.247 198.623 170.303 198.628 170.359 198.621C170.414 198.615 170.468 198.597 170.516 198.569C170.564 198.541 170.606 198.504 170.639 198.459C170.672 198.414 170.696 198.363 170.708 198.308C170.725 198.255 170.731 198.199 170.725 198.143C170.72 198.088 170.704 198.034 170.677 197.985C170.651 197.935 170.615 197.892 170.571 197.857C170.528 197.822 170.478 197.796 170.424 197.78C169.762 197.635 169.075 197.651 168.42 197.825C167.766 197.999 167.162 198.327 166.66 198.782C166.621 198.82 166.59 198.865 166.569 198.915C166.548 198.965 166.537 199.019 166.537 199.073C166.537 199.128 166.548 199.181 166.569 199.231C166.59 199.281 166.621 199.327 166.66 199.365V199.365C166.699 199.432 166.755 199.487 166.822 199.527V199.527Z" fill="#263238"/>
<path d="M168.975 200.461L170.979 200.163C170.979 200.163 169.774 201.531 168.975 200.461Z" fill="#263238"/>
<path opacity="0.2" d="M152.362 220.636C153.547 222.564 155.25 224.122 157.277 225.131C157.574 223.94 157.927 222.721 158.089 221.597C156.139 221.604 154.202 221.279 152.362 220.636V220.636Z" fill="black"/>
<path d="M159.47 205.877C159.47 205.877 165.008 199.947 162.774 194.084C162.774 194.084 169.083 194.829 168.691 190.022C168.298 185.215 161.704 186.61 161.704 186.61C161.704 186.61 165.265 180.923 162.34 179.366C159.416 177.809 154.216 182.453 154.216 182.453C154.216 182.453 141.34 180.476 137.454 195.14C133.568 209.804 125.038 201.098 124.428 207.475C123.738 214.543 133.906 213.582 133.906 213.582C133.684 214.256 133.607 214.971 133.682 215.677C133.756 216.384 133.98 217.066 134.339 217.68C134.697 218.293 135.182 218.823 135.761 219.235C136.34 219.646 137 219.93 137.698 220.067C139.126 220.571 140.671 220.637 142.138 220.259C143.604 219.88 144.924 219.073 145.93 217.941C145.93 217.941 145.578 222.938 151.346 222.328C158.116 221.638 156.654 217.224 157.236 214.936C157.818 212.647 160.499 210.305 159.47 205.877Z" fill="#263238"/>
<path d="M154.311 183.631C154.311 183.631 151.82 176.279 156.18 175.873C160.54 175.466 154.149 178.256 154.311 183.631Z" fill="#263238"/>
<path d="M159.402 203.657C160.093 204.283 160.654 205.039 161.051 205.883C161.449 206.726 161.675 207.64 161.718 208.572C161.826 211.077 159.443 211.767 157.385 210.616C155.327 209.465 153.242 207.015 154.122 204.726C154.318 204.228 154.635 203.786 155.046 203.442C155.456 203.098 155.946 202.862 156.471 202.755C156.996 202.649 157.539 202.676 158.051 202.833C158.563 202.991 159.028 203.274 159.402 203.657V203.657Z" fill="#FF8B7B"/>
<path d="M139.485 229.978C139.485 229.978 137.427 221.218 150.574 225.05C163.722 228.882 162.625 236.369 162.625 236.369L139.485 229.978Z" fill="#407BFF"/>
<path opacity="0.5" d="M139.485 229.978C139.485 229.978 137.427 221.218 150.574 225.05C163.722 228.882 162.625 236.369 162.625 236.369L139.485 229.978Z" fill="white"/>
<path d="M121.896 291.139C121.896 291.139 128.017 270.084 127.489 256.422C126.96 242.76 122.073 226.512 144.671 229.071C167.269 231.63 172.089 239.47 172.089 251.886C172.089 264.302 165.739 299.547 165.739 299.547C165.739 299.547 142.775 305.572 121.896 291.139Z" fill="#3A1772"/>
<path opacity="0.1" d="M172.089 251.886C172.147 249.143 171.805 246.407 171.074 243.762L163.573 240.255L159.294 246.551C159.294 246.551 165.387 260.24 170.925 265.846C171.563 261.217 171.952 256.557 172.089 251.886V251.886Z" fill="black"/>
<path d="M179.888 246.524C179.888 246.524 187.227 253.836 190.219 256.774L213.021 250.492L214.984 244.588L218.41 244.399L228.795 241.298L232.654 245.103L228.903 253.227L216.595 255.61C216.595 255.61 196.543 266.685 189.19 265.981C181.838 265.277 172.184 256.503 172.184 256.503L179.888 246.524Z" fill="#FF8B7B"/>
<path d="M161.582 233.255C167.892 234.176 174.337 239.186 184.357 248.054C181.977 252.988 178.321 257.195 173.768 260.24C173.768 260.24 167.919 257.681 160.973 248.826C152.524 238.184 157.71 232.686 161.582 233.255Z" fill="#3A1772"/>
<path d="M410.705 575.154C408.552 575.154 406.832 574.517 406.9 572.446L411.341 432.821H418.937L414.496 572.676C414.428 574.612 412.749 575.154 410.705 575.154Z" fill="#263238"/>
<path opacity="0.2" d="M410.705 575.154C408.552 575.154 406.832 574.517 406.9 572.446L411.341 432.821H418.937L414.496 572.676C414.428 574.612 412.749 575.154 410.705 575.154Z" fill="white"/>
<path d="M485.473 432.699H390.828V452.617H485.473V432.699Z" fill="#263238"/>
<path opacity="0.2" d="M485.473 432.699H390.828V452.617H485.473V432.699Z" fill="white"/>
<path d="M509.75 432.699H485.473V452.617H509.75V432.699Z" fill="#407BFF"/>
<path d="M509.75 432.699H485.473V452.617H509.75V432.699Z" fill="#263238"/>
<path opacity="0.2" d="M509.75 432.699H485.473V452.617H509.75V432.699Z" fill="white"/>
<path d="M517.481 575.154C519.648 575.154 521.381 574.463 521.259 572.283L513.514 432.821H505.918L513.69 572.771C513.798 574.666 515.464 575.154 517.481 575.154Z" fill="#263238"/>
<path opacity="0.2" d="M517.481 575.154C519.648 575.154 521.381 574.463 521.259 572.283L513.514 432.821H505.918L513.69 572.771C513.798 574.666 515.464 575.154 517.481 575.154Z" fill="white"/>
<path d="M489.846 575.154C491.985 575.154 493.705 574.517 493.637 572.446L489.196 432.821H481.546L485.987 572.676C486.109 574.612 487.788 575.154 489.846 575.154Z" fill="#263238"/>
<path opacity="0.2" d="M489.846 575.154C491.985 575.154 493.705 574.517 493.637 572.446L489.196 432.821H481.546L485.987 572.676C486.109 574.612 487.788 575.154 489.846 575.154Z" fill="white"/>
<path d="M383.07 575.154C380.89 575.154 379.157 574.463 379.279 572.283L387.037 432.821H394.633L386.847 572.771C386.766 574.666 385.074 575.154 383.07 575.154Z" fill="#263238"/>
<path opacity="0.2" d="M383.07 575.154C380.89 575.154 379.157 574.463 379.279 572.283L387.037 432.821H394.633L386.847 572.771C386.766 574.666 385.074 575.154 383.07 575.154Z" fill="white"/>
<path d="M359.686 426.417H540.784C541.26 426.417 541.732 426.511 542.172 426.693C542.613 426.875 543.013 427.143 543.349 427.48C543.686 427.817 543.954 428.217 544.136 428.657C544.318 429.097 544.412 429.569 544.412 430.045V435.326C544.412 436.292 544.029 437.218 543.346 437.902C542.662 438.585 541.736 438.968 540.77 438.968H359.686C358.724 438.968 357.801 438.586 357.12 437.905C356.44 437.225 356.057 436.302 356.057 435.34V430.059C356.057 429.097 356.44 428.174 357.12 427.493C357.801 426.813 358.724 426.43 359.686 426.43V426.417Z" fill="#263238"/>
<path opacity="0.5" d="M359.686 426.417H540.784C541.26 426.417 541.732 426.511 542.172 426.693C542.613 426.875 543.013 427.143 543.349 427.48C543.686 427.817 543.954 428.217 544.136 428.657C544.318 429.097 544.412 429.569 544.412 430.045V435.326C544.412 436.292 544.029 437.218 543.346 437.902C542.662 438.585 541.736 438.968 540.77 438.968H359.686C358.724 438.968 357.801 438.586 357.12 437.905C356.44 437.225 356.057 436.302 356.057 435.34V430.059C356.057 429.097 356.44 428.174 357.12 427.493C357.801 426.813 358.724 426.43 359.686 426.43V426.417Z" fill="white"/>
<path d="M458.379 387.53V397.536C458.634 397.536 458.879 397.637 459.059 397.817C459.239 397.998 459.34 398.242 459.34 398.497C459.34 398.752 459.239 398.997 459.059 399.177C458.879 399.357 458.634 399.459 458.379 399.459C454.561 399.459 450.743 399.459 446.924 399.459V385.594H458.379C458.636 385.594 458.882 385.696 459.064 385.877C459.245 386.059 459.347 386.305 459.347 386.562C459.347 386.818 459.245 387.065 459.064 387.246C458.882 387.428 458.636 387.53 458.379 387.53Z" fill="#407BFF"/>
<path opacity="0.3" d="M458.379 387.53V397.536C458.634 397.536 458.879 397.637 459.059 397.817C459.239 397.998 459.34 398.242 459.34 398.497C459.34 398.752 459.239 398.997 459.059 399.177C458.879 399.357 458.634 399.459 458.379 399.459C454.561 399.459 450.743 399.459 446.924 399.459V385.594H458.379C458.636 385.594 458.882 385.696 459.064 385.877C459.245 386.059 459.347 386.305 459.347 386.562C459.347 386.818 459.245 387.065 459.064 387.246C458.882 387.428 458.636 387.53 458.379 387.53Z" fill="white"/>
<path d="M458.379 387.543H449.483V397.536H458.379V387.543Z" fill="#407BFF"/>
<path opacity="0.6" d="M458.379 387.543H449.483V397.536H458.379V387.543Z" fill="white"/>
<path d="M451.352 386.569H402.242C400.117 386.569 398.397 389.277 398.397 392.54C398.397 395.803 400.117 398.497 402.242 398.497H451.352V386.569Z" fill="#407BFF"/>
<path opacity="0.9" d="M451.352 386.569H402.242C400.117 386.569 398.397 389.277 398.397 392.54C398.397 395.803 400.117 398.497 402.242 398.497H451.352V386.569Z" fill="white"/>
<path d="M451.352 399.459C441.251 399.459 412.871 399.648 402.77 399.459C395.851 399.337 395.486 386.081 402.269 385.607C406.995 385.282 411.856 385.607 416.595 385.607H451.352C451.607 385.607 451.851 385.708 452.032 385.889C452.212 386.069 452.313 386.314 452.313 386.569C452.313 386.823 452.212 387.068 452.032 387.248C451.851 387.429 451.607 387.53 451.352 387.53H404.368C402.147 387.53 400.563 387.53 399.71 390.17C398.966 392.431 399.209 397.048 402.242 397.536C402.585 397.563 402.929 397.563 403.271 397.536H451.352C451.607 397.536 451.851 397.637 452.032 397.817C452.212 397.998 452.313 398.242 452.313 398.497C452.313 398.752 452.212 398.997 452.032 399.177C451.851 399.357 451.607 399.459 451.352 399.459Z" fill="#407BFF"/>
<g opacity="0.2">
<path opacity="0.2" d="M451.352 399.459C441.251 399.459 412.871 399.648 402.77 399.459C395.851 399.337 395.486 386.081 402.269 385.607C406.995 385.282 411.856 385.607 416.595 385.607H451.352C451.607 385.607 451.851 385.708 452.032 385.889C452.212 386.069 452.313 386.314 452.313 386.569C452.313 386.823 452.212 387.068 452.032 387.248C451.851 387.429 451.607 387.53 451.352 387.53H404.368C402.147 387.53 400.563 387.53 399.71 390.17C398.966 392.431 399.209 397.048 402.242 397.536C402.585 397.563 402.929 397.563 403.271 397.536H451.352C451.607 397.536 451.851 397.637 452.032 397.817C452.212 397.998 452.313 398.242 452.313 398.497C452.313 398.752 452.212 398.997 452.032 399.177C451.851 399.357 451.607 399.459 451.352 399.459Z" fill="white"/>
</g>
<path d="M456.673 401.043V410.318C456.889 410.344 457.088 410.449 457.233 410.613C457.377 410.776 457.457 410.987 457.457 411.205C457.457 411.423 457.377 411.633 457.233 411.796C457.088 411.96 456.889 412.065 456.673 412.091H446.058V399.228H456.673C456.914 399.228 457.144 399.324 457.314 399.494C457.485 399.664 457.58 399.895 457.58 400.136C457.58 400.376 457.485 400.607 457.314 400.777C457.144 400.947 456.914 401.043 456.673 401.043Z" fill="#407BFF"/>
<path opacity="0.3" d="M456.673 401.043V410.318C456.889 410.344 457.088 410.449 457.233 410.613C457.377 410.776 457.457 410.987 457.457 411.205C457.457 411.423 457.377 411.633 457.233 411.796C457.088 411.96 456.889 412.065 456.673 412.091H446.058V399.228H456.673C456.914 399.228 457.144 399.324 457.314 399.494C457.485 399.664 457.58 399.895 457.58 400.136C457.58 400.376 457.485 400.607 457.314 400.777C457.144 400.947 456.914 401.043 456.673 401.043Z" fill="white"/>
<path d="M456.673 401.056H448.427V410.318H456.673V401.056Z" fill="#407BFF"/>
<path opacity="0.6" d="M456.673 401.056H448.427V410.318H456.673V401.056Z" fill="white"/>
<path d="M450.16 400.149H404.68C402.716 400.149 401.119 402.627 401.119 405.673C401.119 408.72 402.716 411.198 404.68 411.198H450.16V400.149Z" fill="#407BFF"/>
<path opacity="0.9" d="M450.16 400.149H404.68C402.716 400.149 401.119 402.627 401.119 405.673C401.119 408.72 402.716 411.198 404.68 411.198H450.16V400.149Z" fill="white"/>
<path d="M450.16 412.092C440.804 412.092 414.523 412.254 405.167 412.092C398.763 411.97 398.397 399.702 404.707 399.269C409.08 398.971 413.589 399.269 417.976 399.269H450.16C450.377 399.296 450.576 399.401 450.72 399.564C450.865 399.728 450.944 399.938 450.944 400.156C450.944 400.374 450.865 400.584 450.72 400.748C450.576 400.911 450.377 401.016 450.16 401.043H406.656C404.598 401.043 403.136 401.043 402.337 403.48C401.647 405.579 401.863 409.857 404.68 410.318C405 410.338 405.321 410.338 405.641 410.318H450.16C450.377 410.345 450.576 410.449 450.72 410.613C450.865 410.776 450.944 410.987 450.944 411.205C450.944 411.423 450.865 411.633 450.72 411.796C450.576 411.96 450.377 412.065 450.16 412.092V412.092Z" fill="#407BFF"/>
<path d="M461.954 414.028V425.063C462.234 425.063 462.502 425.174 462.701 425.372C462.899 425.57 463.01 425.839 463.01 426.119C463.01 426.399 462.899 426.668 462.701 426.866C462.502 427.064 462.234 427.175 461.954 427.175C457.756 427.175 453.545 427.175 449.334 427.175V411.929H461.954C462.212 411.958 462.449 412.081 462.622 412.275C462.795 412.469 462.891 412.719 462.891 412.978C462.891 413.238 462.795 413.488 462.622 413.682C462.449 413.875 462.212 413.998 461.954 414.028V414.028Z" fill="#407BFF"/>
<path opacity="0.3" d="M461.954 414.028V425.063C462.234 425.063 462.502 425.174 462.701 425.372C462.899 425.57 463.01 425.839 463.01 426.119C463.01 426.399 462.899 426.668 462.701 426.866C462.502 427.064 462.234 427.175 461.954 427.175C457.756 427.175 453.545 427.175 449.334 427.175V411.929H461.954C462.212 411.958 462.449 412.081 462.622 412.275C462.795 412.469 462.891 412.719 462.891 412.978C462.891 413.238 462.795 413.488 462.622 413.682C462.449 413.875 462.212 413.998 461.954 414.028V414.028Z" fill="white"/>
<path d="M461.954 414.055H452.151V425.076H461.954V414.055Z" fill="#407BFF"/>
<path opacity="0.6" d="M461.954 414.055H452.151V425.076H461.954V414.055Z" fill="white"/>
<path d="M454.209 412.985H400.049C397.72 412.985 395.824 415.923 395.824 419.552C395.824 423.181 397.72 426.132 400.049 426.132H454.209V412.985Z" fill="#407BFF"/>
<path opacity="0.9" d="M454.209 412.985H400.049C397.72 412.985 395.824 415.923 395.824 419.552C395.824 423.181 397.72 426.132 400.049 426.132H454.209V412.985Z" fill="white"/>
<path d="M454.209 427.189C443.079 427.189 411.802 427.392 400.672 427.189C393.049 427.053 392.643 412.443 400.117 411.929C405.33 411.577 410.691 411.929 415.904 411.929H454.209C454.489 411.929 454.758 412.04 454.956 412.238C455.154 412.436 455.265 412.705 455.265 412.985C455.265 413.265 455.154 413.534 454.956 413.732C454.758 413.93 454.489 414.041 454.209 414.041H402.432C399.995 414.041 398.248 414.041 397.3 416.952C396.488 419.444 396.745 424.521 400.076 425.076C400.459 425.103 400.844 425.103 401.227 425.076H454.209C454.489 425.076 454.758 425.188 454.956 425.386C455.154 425.584 455.265 425.852 455.265 426.132C455.265 426.412 455.154 426.681 454.956 426.879C454.758 427.077 454.489 427.189 454.209 427.189Z" fill="#407BFF"/>
<g opacity="0.2">
<path opacity="0.2" d="M454.209 427.189C443.079 427.189 411.802 427.392 400.672 427.189C393.049 427.053 392.643 412.443 400.117 411.929C405.33 411.577 410.691 411.929 415.904 411.929H454.209C454.489 411.929 454.758 412.04 454.956 412.238C455.154 412.436 455.265 412.705 455.265 412.985C455.265 413.265 455.154 413.534 454.956 413.732C454.758 413.93 454.489 414.041 454.209 414.041H402.432C399.995 414.041 398.248 414.041 397.3 416.952C396.488 419.444 396.745 424.521 400.076 425.076C400.459 425.103 400.844 425.103 401.227 425.076H454.209C454.489 425.076 454.758 425.188 454.956 425.386C455.154 425.584 455.265 425.852 455.265 426.132C455.265 426.412 455.154 426.681 454.956 426.879C454.758 427.077 454.489 427.189 454.209 427.189Z" fill="black"/>
</g>
</g>
<defs>
<clipPath id="clip0">
<rect width="677" height="677" fill="white"/>
</clipPath>
</defs>
</svg>
