<svg width="39" height="39" viewBox="0 0 39 39" fill="none" xmlns="http://www.w3.org/2000/svg">
<g clip-path="url(#clip0)">
<path d="M24.375 21.125C23.4764 21.125 22.75 21.853 22.75 22.75V29.25C22.75 30.1454 22.022 30.875 21.125 30.875H16.25V6.5C16.25 5.11225 15.366 3.87238 14.0367 3.41087L13.5557 3.25H21.125C22.022 3.25 22.75 3.97962 22.75 4.875V9.75C22.75 10.647 23.4764 11.375 24.375 11.375C25.2736 11.375 26 10.647 26 9.75V4.875C26 2.18725 23.8127 0 21.125 0H3.65625C3.5945 0 3.5425 0.027625 3.48237 0.03575C3.40437 0.02925 3.32962 0 3.25 0C1.45762 0 0 1.45762 0 3.25V32.5C0 33.8877 0.884 35.1276 2.21325 35.5891L11.9925 38.8489C12.324 38.9512 12.6539 39 13 39C14.7924 39 16.25 37.5424 16.25 35.75V34.125H21.125C23.8127 34.125 26 31.9377 26 29.25V22.75C26 21.853 25.2736 21.125 24.375 21.125Z" fill="white"/>
<path d="M38.524 15.1012L32.024 8.60119C31.5592 8.13644 30.8605 7.99669 30.2527 8.24856C29.6466 8.50044 29.2501 9.09356 29.2501 9.75006V14.6251H22.7501C21.8531 14.6251 21.1251 15.3531 21.1251 16.2501C21.1251 17.1471 21.8531 17.8751 22.7501 17.8751H29.2501V22.7501C29.2501 23.4066 29.6466 23.9997 30.2527 24.2516C30.8605 24.5034 31.5592 24.3637 32.024 23.8989L38.524 17.3989C39.1594 16.7636 39.1594 15.7366 38.524 15.1012Z" fill="white"/>
</g>
<defs>
<clipPath id="clip0">
<rect width="39" height="39" fill="white"/>
</clipPath>
</defs>
</svg>
