<svg width="53" height="53" viewBox="0 0 53 53" fill="none" xmlns="http://www.w3.org/2000/svg">
<path fill-rule="evenodd" clip-rule="evenodd" d="M48.8169 21.3942H13.5003L47.4223 11.5675C47.6859 11.491 47.9083 11.3127 48.0409 11.0725C48.1736 10.8319 48.2051 10.5489 48.1287 10.2852L46.3536 4.1572C45.6443 1.70963 43.3653 0 40.8114 0C40.2732 0 39.737 0.0764236 39.217 0.226845L7.36779 9.45308C5.89471 9.87968 4.67396 10.859 3.92953 12.21C3.18551 13.561 3.01083 15.1165 3.43743 16.5892L5.17172 22.5761V47.2391C5.17172 50.4157 7.75597 53 10.9322 53H23.3711C23.9428 53 24.4062 52.5366 24.4062 51.9648C24.4062 51.3931 23.9428 50.9297 23.3711 50.9297H10.9326C8.89747 50.9297 7.24203 49.2742 7.24203 47.2391V33.1521H12.5452H12.5476H12.5496H20.6562H20.6586H20.6611H28.7676H28.7701H28.7725H36.879H36.8815H36.8835H47.7817V47.2391C47.7817 49.2742 46.1263 50.9297 44.0912 50.9297H31.6523C31.081 50.9297 30.6172 51.3931 30.6172 51.9648C30.6172 52.5366 31.081 53 31.6523 53H44.0912C47.2678 53 49.8521 50.4157 49.8521 47.2391V22.4293C49.8521 21.8576 49.3887 21.3942 48.8169 21.3942ZM30.5638 31.0818L34.962 23.4645H40.6824L36.2846 31.0818H30.5638ZM22.4524 31.0818L26.8506 23.4645H32.571L28.1732 31.0818H22.4524ZM14.3413 31.0818L18.7391 23.4645H24.46L20.0618 31.0818H14.3413ZM18.19 17.681L10.825 10.6071L16.3433 9.00869C16.3821 9.0653 16.4274 9.11868 16.4792 9.16841L23.8442 16.2422L18.3259 17.8407C18.2871 17.7841 18.2414 17.7303 18.19 17.681ZM32.0611 4.65456L39.4261 11.7284L33.9078 13.3268C33.869 13.2702 33.8237 13.2164 33.772 13.1671L26.407 6.09327L31.9253 4.49484C31.9641 4.55145 32.0094 4.60483 32.0611 4.65456ZM24.27 6.91169L31.6349 13.9851L26.1167 15.584C26.0778 15.5273 26.0325 15.4736 25.9808 15.4242L18.6158 8.3504L24.1341 6.75197C24.1733 6.80817 24.2186 6.86195 24.27 6.91169ZM39.7933 2.21548C40.1256 2.11924 40.4681 2.07031 40.8114 2.07031C42.4495 2.07031 43.9104 3.16531 44.3649 4.73341L45.8521 9.86674L41.699 11.0697C41.6598 11.0131 41.6145 10.9597 41.5627 10.91L34.1981 3.83655L39.7933 2.21548ZM5.74308 13.2088C6.22022 12.3422 7.00184 11.7147 7.944 11.4417L8.55215 11.2654C8.59137 11.322 8.63666 11.3758 8.68802 11.4251L16.053 18.499L6.91329 21.1467L5.42606 16.0134C5.15312 15.0716 5.26593 14.0757 5.74308 13.2088ZM7.24203 23.4645H16.3486L11.9508 31.0818H7.24203V23.4645ZM38.6752 31.0818L43.073 23.4645H47.7817V31.0818H38.6752Z" fill="#3A1772"/>
<path fill-rule="evenodd" clip-rule="evenodd" d="M34.6697 41.9355C34.6697 41.5656 34.4723 41.2239 34.1521 41.0391L25.0577 35.7885C24.7374 35.6037 24.3428 35.6037 24.0225 35.7885C23.7023 35.9733 23.5049 36.315 23.5049 36.685V47.1861C23.5049 47.5557 23.7023 47.8974 24.0225 48.0822C24.1826 48.1748 24.3614 48.2213 24.5401 48.2213C24.7188 48.2213 24.8976 48.1748 25.0577 48.0822L34.1521 42.832C34.4723 42.6472 34.6697 42.3055 34.6697 41.9355ZM25.5753 45.3932V38.4779L31.5642 41.9355L25.5753 45.3932Z" fill="#3A1772"/>
<path fill-rule="evenodd" clip-rule="evenodd" d="M27.5117 50.9297C26.9416 50.9297 26.4766 51.3947 26.4766 51.9648C26.4766 52.535 26.9416 53 27.5117 53C28.0823 53 28.5469 52.535 28.5469 51.9648C28.5469 51.3947 28.0823 50.9297 27.5117 50.9297Z" fill="#3A1772"/>
</svg>
