<svg width="65" height="65" viewBox="0 0 65 65" fill="none" xmlns="http://www.w3.org/2000/svg">
<path d="M59.5833 35.2083H54.1666V24.375H59.5833V35.2083ZM59.5833 21.6667H54.1666V10.8333H59.5833V21.6667ZM59.5833 37.9167H54.1666V48.75H59.5833V37.9167ZM59.5833 51.4583H54.1666V62.2917H59.5833V51.4583ZM30.42 35.5171C29.7754 36.7277 29.3583 38.2931 29.3583 39.5119C29.3583 42.77 32.5352 42.7917 34.1006 39.7285C34.7425 38.4692 35.1595 36.8631 35.1595 35.639C35.1595 33.0065 32.0016 32.5406 30.42 35.5171ZM14.8823 10.8333H51.4583V65H13.5416C9.05663 65 5.41663 61.3627 5.41663 56.875V8.125C5.41663 3.63729 9.05663 0 13.5416 0H59.5833V5.41667H14.8823C11.1556 5.41667 11.1556 10.8333 14.8823 10.8333V10.8333ZM21.6666 38.3473C21.6666 44.0294 25.4827 48.4331 32.5379 48.4331C36.4379 48.4331 38.9187 47.3092 40.4652 46.4398L39.4035 44.9069C37.8191 45.8223 35.9206 46.6619 32.8141 46.6619C27.5112 46.6619 23.9443 43.2602 23.9443 38.1929C23.9443 29.3502 33.8487 27.736 38.2037 30.3442C42.2635 32.8846 42.1118 38.9756 39.1056 41.3048C37.5023 42.5831 35.7012 42.5398 36.2835 40.1321C36.2835 40.1321 38.1604 33.1879 38.3798 32.435H36.2727L35.8502 33.9056C35.4223 32.6923 34.3904 31.9015 32.8954 31.9015C29.7727 31.9015 27.132 35.2896 27.132 39.3033C27.132 41.9819 28.5485 43.6421 30.8154 43.6421C32.8006 43.6421 33.8352 42.5181 34.4743 41.516C34.0085 46.0092 43.3333 43.9346 43.3333 36.0669C43.3333 31.0456 39.2627 27.4002 33.651 27.4002C25.9675 27.4002 21.6666 32.2752 21.6666 38.3473V38.3473Z" fill="white"/>
</svg>
