<svg width="36" height="36" viewBox="0 0 36 36" fill="none" xmlns="http://www.w3.org/2000/svg">
<path d="M36 20.424V15.576C33.5235 14.6955 31.959 14.448 31.1715 12.5475V12.546C30.381 10.6395 31.3215 9.345 32.442 6.9855L29.0145 3.558C26.673 4.671 25.365 5.6205 23.454 4.8285H23.4525C21.549 4.0395 21.3 2.4645 20.424 0H15.576C14.703 2.4525 14.4525 4.038 12.5475 4.8285H12.546C10.6395 5.6205 9.348 4.6815 6.9855 3.558L3.558 6.9855C4.6755 9.3375 5.6205 10.6365 4.8285 12.546C4.038 14.4525 2.4525 14.703 0 15.576V20.424C2.448 21.294 4.038 21.5475 4.8285 23.4525C5.6235 25.3755 4.6575 26.7015 3.558 29.013L6.9855 32.442C9.3285 31.3275 10.6365 30.3795 12.546 31.1715H12.5475C14.4525 31.9605 14.7015 33.54 15.576 36H20.424C21.297 33.546 21.549 31.965 23.4645 31.167H23.466C25.359 30.381 26.646 31.3185 29.013 32.4435L32.4405 29.0145C31.3245 26.67 30.378 25.365 31.1685 23.4555C31.959 21.549 33.5505 21.2955 36 20.424V20.424ZM18 24C14.6865 24 12 21.3135 12 18C12 14.6865 14.6865 12 18 12C21.3135 12 24 14.6865 24 18C24 21.3135 21.3135 24 18 24Z" fill="white"/>
</svg>
