<svg width="62" height="62" viewBox="0 0 62 62" fill="none" xmlns="http://www.w3.org/2000/svg">
<path fill-rule="evenodd" clip-rule="evenodd" d="M57.1066 25.0271H15.7928L55.4751 13.5318C55.7835 13.4424 56.0437 13.2337 56.1988 12.9528C56.354 12.6713 56.3909 12.3402 56.3015 12.0318L54.2249 4.86314C53.3952 1.99994 50.7293 0 47.7417 0C47.1121 0 46.4848 0.0894012 45.8765 0.265366L8.61892 11.0583C6.8957 11.5574 5.46765 12.703 4.59681 14.2834C3.72645 15.8638 3.5221 17.6835 4.02114 19.4062L6.04994 26.4098V55.2608C6.04994 58.9769 9.07302 62 12.7886 62H27.3397C28.0086 62 28.5507 61.4579 28.5507 60.7891C28.5507 60.1202 28.0086 59.5781 27.3397 59.5781H12.7891C10.4084 59.5781 8.47181 57.6416 8.47181 55.2608V38.7817H14.6755H14.6783H14.6807H24.1639H24.1667H24.1695H33.6527H33.6555H33.6584H43.1415H43.1444H43.1467H55.8956V55.2608C55.8956 57.6416 53.9591 59.5781 51.5784 59.5781H37.0272C36.3589 59.5781 35.8163 60.1202 35.8163 60.7891C35.8163 61.4579 36.3589 62 37.0272 62H51.5784C55.2944 62 58.3175 58.9769 58.3175 55.2608V26.2381C58.3175 25.5692 57.7754 25.0271 57.1066 25.0271ZM35.7539 36.3598L40.8989 27.449H47.5908L42.4462 36.3598H35.7539ZM26.265 36.3598L31.4101 27.449H38.1019L32.9573 36.3598H26.265ZM16.7767 36.3598L21.9213 27.449H28.6136L23.4685 36.3598H16.7767ZM21.2789 20.6834L12.6633 12.4083L19.1186 10.5385C19.164 10.6047 19.217 10.6671 19.2775 10.7253L27.8932 19.0004L21.4378 20.8702C21.3924 20.804 21.339 20.7411 21.2789 20.6834ZM37.5055 5.44496L46.1211 13.72L39.6658 15.5899C39.6203 15.5237 39.5674 15.4607 39.5068 15.403L30.8912 7.12798L37.3465 5.25812C37.3919 5.32434 37.4449 5.38678 37.5055 5.44496ZM28.3913 8.08537L37.0069 16.36L30.5516 18.2303C30.5061 18.1641 30.4532 18.1012 30.3926 18.0434L21.777 9.76839L28.2323 7.89853C28.2782 7.96428 28.3312 8.02719 28.3913 8.08537ZM46.5506 2.59169C46.9394 2.47911 47.3401 2.42188 47.7417 2.42188C49.6579 2.42188 51.3669 3.70282 51.8986 5.5372L53.6384 11.5422L48.7799 12.9495C48.7341 12.8832 48.6811 12.8208 48.6205 12.7626L40.0054 4.48804L46.5506 2.59169ZM6.71832 15.4518C7.27648 14.4381 8.19084 13.7039 9.29298 13.3846L10.0044 13.1784C10.0503 13.2446 10.1033 13.3075 10.1633 13.3652L18.779 21.6403L8.08724 24.7377L6.34747 18.7326C6.02818 17.631 6.16015 16.4659 6.71832 15.4518ZM8.47181 27.449H19.1248L13.9802 36.3598H8.47181V27.449ZM45.2427 36.3598L50.3873 27.449H55.8956V36.3598H45.2427Z" fill="white"/>
<path fill-rule="evenodd" clip-rule="evenodd" d="M40.557 49.0566C40.557 48.6238 40.3261 48.2241 39.9515 48.0079L29.3127 41.8657C28.9381 41.6496 28.4764 41.6496 28.1018 41.8657C27.7272 42.0819 27.4963 42.4816 27.4963 42.9144V55.1988C27.4963 55.6312 27.7272 56.0309 28.1018 56.247C28.2891 56.3554 28.4982 56.4098 28.7073 56.4098C28.9164 56.4098 29.1254 56.3554 29.3127 56.247L39.9515 50.1053C40.3261 49.8891 40.557 49.4894 40.557 49.0566ZM29.9182 53.1014V45.0118L36.9241 49.0566L29.9182 53.1014Z" fill="white"/>
<path fill-rule="evenodd" clip-rule="evenodd" d="M32.1835 59.5781C31.5165 59.5781 30.9725 60.1221 30.9725 60.7891C30.9725 61.456 31.5165 62 32.1835 62C32.8509 62 33.3944 61.456 33.3944 60.7891C33.3944 60.1221 32.8509 59.5781 32.1835 59.5781Z" fill="white"/>
</svg>
