<svg width="40" height="40" viewBox="0 0 40 40" fill="none" xmlns="http://www.w3.org/2000/svg">
<path fill-rule="evenodd" clip-rule="evenodd" d="M36.4211 16.1465H9.76702L35.3685 8.73016C35.5675 8.67249 35.7353 8.5379 35.8354 8.35663C35.9355 8.17505 35.9593 7.96143 35.9017 7.76245L34.5619 3.13751C34.0267 1.29028 32.3067 0 30.3792 0C29.973 0 29.5683 0.0576782 29.1759 0.171204L5.13872 7.1344C4.02696 7.45636 3.10564 8.1955 2.54381 9.21509C1.98229 10.2347 1.85045 11.4087 2.17241 12.5201L3.48131 17.0386V35.6522C3.48131 38.0496 5.43169 40 7.82884 40H17.2167C17.6482 40 17.9979 39.6503 17.9979 39.2188C17.9979 38.7872 17.6482 38.4375 17.2167 38.4375H7.82915C6.2932 38.4375 5.04381 37.1881 5.04381 35.6522V25.0204H9.04619H9.04802H9.04955H15.1677H15.1695H15.1714H21.2895H21.2914H21.2932H27.4114H27.4132H27.4147H35.6398V35.6522C35.6398 37.1881 34.3904 38.4375 32.8545 38.4375H23.4667C23.0354 38.4375 22.6854 38.7872 22.6854 39.2188C22.6854 39.6503 23.0354 40 23.4667 40H32.8545C35.2519 40 37.2023 38.0496 37.2023 35.6522V16.9278C37.2023 16.4963 36.8526 16.1465 36.4211 16.1465ZM22.6451 23.4579L25.9645 17.709H30.2818L26.9628 23.4579H22.6451ZM16.5233 23.4579L19.8427 17.709H24.16L20.8409 23.4579H16.5233ZM10.4018 23.4579L13.7209 17.709H18.0385L14.7191 23.4579H10.4018ZM13.3064 13.3441L7.74797 8.00537L11.9127 6.79901C11.942 6.84174 11.9762 6.88202 12.0152 6.91956L17.5737 12.2583L13.409 13.4647C13.3797 13.4219 13.3452 13.3813 13.3064 13.3441ZM23.7752 3.51288L29.3337 8.85162L25.1689 10.058C25.1396 10.0153 25.1055 9.97467 25.0664 9.93744L19.5079 4.59869L23.6727 3.39233C23.702 3.43506 23.7361 3.47534 23.7752 3.51288ZM17.8951 5.21637L23.4535 10.5548L19.2888 11.7615C19.2595 11.7188 19.2253 11.6782 19.1863 11.6409L13.6278 6.30219L17.7925 5.09583C17.8221 5.13824 17.8563 5.17883 17.8951 5.21637ZM29.6108 1.67206C29.8616 1.59943 30.1201 1.5625 30.3792 1.5625C31.6155 1.5625 32.7181 2.38892 33.0611 3.57239L34.1835 7.44659L31.0491 8.35449C31.0195 8.31177 30.9853 8.27148 30.9462 8.23395L25.3881 2.89551L29.6108 1.67206ZM3.91252 9.96887C4.27263 9.31488 4.86254 8.84125 5.5736 8.63525L6.03258 8.5022C6.06218 8.54492 6.09636 8.58551 6.13512 8.62274L11.6936 13.9615L4.7957 15.9598L3.67327 12.0856C3.46727 11.3748 3.55242 10.6232 3.91252 9.96887ZM5.04381 17.709H11.9167L8.59758 23.4579H5.04381V17.709ZM28.767 23.4579L32.086 17.709H35.6398V23.4579H28.767Z" fill="white"/>
<path fill-rule="evenodd" clip-rule="evenodd" d="M25.7438 31.6495C25.7438 31.3703 25.5949 31.1124 25.3532 30.9729L18.4895 27.0102C18.2478 26.8707 17.95 26.8707 17.7083 27.0102C17.4666 27.1497 17.3176 27.4075 17.3176 27.6868V35.6122C17.3176 35.8911 17.4666 36.149 17.7083 36.2885C17.8291 36.3584 17.964 36.3934 18.0989 36.3934C18.2338 36.3934 18.3687 36.3584 18.4895 36.2885L25.3532 32.3261C25.5949 32.1866 25.7438 31.9287 25.7438 31.6495ZM18.8801 34.259V29.0399L23.4001 31.6495L18.8801 34.259Z" fill="white"/>
<path fill-rule="evenodd" clip-rule="evenodd" d="M20.3416 38.4375C19.9113 38.4375 19.5603 38.7885 19.5603 39.2188C19.5603 39.649 19.9113 40 20.3416 40C20.7722 40 21.1228 39.649 21.1228 39.2188C21.1228 38.7885 20.7722 38.4375 20.3416 38.4375Z" fill="white"/>
</svg>
